<?xml version="1.0" encoding="utf-8"?>
<!-- Generator: Adobe Illustrator 26.5.0, SVG Export Plug-In . SVG Version: 6.00 Build 0)  -->
<svg id="Ebene_1" style="enable-background:new 0 0 184 231;" version="1.1" viewBox="0 0 184 231"
     x="0px"
     xml:space="preserve" xmlns="http://www.w3.org/2000/svg" y="0px">
<style type="text/css">
	.st0 {
    display: none;
  }

  .st1 {
    display: inline;
    fill: #E5F4FD;
  }

  .st2 {
    display: inline;
  }

  .st3 {
    fill: #E5F4FD;
  }

  .st4 {
    opacity: 0.5;
    fill: #E5F4FD;
    enable-background: new;
  }

  .st5 {
    fill: #FFFFFF;
  }

  .st6 {
    opacity: 0.5;
    fill: #FFFFFF;
    enable-background: new;
  }

  .st7 {
    opacity: 0.5;
    fill: url(#SVGID_1_);
    enable-background: new;
  }

  .st8 {
    fill: url(#SVGID_00000083802378244630360210000008595776711893410702_);
  }

  .st9 {
    fill: url(#SVGID_00000012444216479808437540000012709140651543371444_);
  }

  .st10 {
    fill: url(#SVGID_00000072269359033329875520000008415342583394926243_);
  }

  .st11 {
    fill: url(#SVGID_00000170981484730897216140000013661832716269522332_);
  }

  .st12 {
    opacity: 0.3;
    fill: url(#SVGID_00000119102758900745753720000014365221006723482775_);
    enable-background: new;
  }

  .st13 {
    opacity: 0.3;
    fill: url(#SVGID_00000013896981778878021130000017299503361247732669_);
    enable-background: new;
  }

  .st14 {
    fill: url(#SVGID_00000164497622811003943190000018408565947262372253_);
  }

  .st15 {
    fill: url(#SVGID_00000008143593376234437850000015659523692516399517_);
  }

  .st16 {
    opacity: 0.3;
    fill: url(#SVGID_00000095319022695476365720000005624791624427120548_);
    enable-background: new;
  }

  .st17 {
    fill: url(#SVGID_00000049185157711526101550000016781456906911023291_);
  }

  .st18 {
    fill: url(#SVGID_00000005225134843701003070000011840423592727149705_);
  }

  .st19 {
    opacity: 0.5;
    fill: url(#SVGID_00000031182006491224648290000015488981106522429838_);
    enable-background: new;
  }

  .st20 {
    fill: url(#SVGID_00000067210738174629146960000005592739525610105531_);
  }

  .st21 {
    fill: url(#SVGID_00000031201021850870580670000004355227105338118334_);
  }

  .st22 {
    fill: url(#SVGID_00000119092605208978805490000012695516257568675456_);
  }

  .st23 {
    fill: url(#SVGID_00000176748765029435590230000005557111361517292685_);
  }

  .st24 {
    fill: url(#SVGID_00000147212636236698300290000000848959972029224853_);
  }

  .st25 {
    fill: url(#SVGID_00000152259146863190409100000007473399245710100900_);
  }

  .st26 {
    fill: url(#SVGID_00000049207025141901791660000001347551850329570456_);
  }

  .st27 {
    fill: url(#SVGID_00000175321135501258683890000002405377865777463682_);
  }

  .st28 {
    fill: #DFE2F3;
  }

  .st29 {
    fill: url(#SVGID_00000160170211369851542710000005217630246979684275_);
  }

  .st30 {
    opacity: 0.3;
    fill: url(#SVGID_00000078741270192274520570000005099950740492961420_);
    enable-background: new;
  }

  .st31 {
    fill: url(#SVGID_00000034088044573182807880000004570798014322970527_);
  }

  .st32 {
    opacity: 0.5;
    fill: url(#SVGID_00000138545879319898052420000007606342228928440714_);
    enable-background: new;
  }

  .st33 {
    fill: url(#SVGID_00000120531809157665657890000010017095869831855247_);
  }

  .st34 {
    fill: url(#SVGID_00000064327457887848622930000006457769561026856888_);
  }

  .st35 {
    fill: url(#SVGID_00000003823740104805835970000006613269317365439642_);
  }

  .st36 {
    fill: url(#SVGID_00000069366076591275905120000017126715308267798964_);
  }

  .st37 {
    opacity: 0.5;
    fill: url(#SVGID_00000080166214007531207520000016569980383113526715_);
    enable-background: new;
  }

  .st38 {
    fill: url(#SVGID_00000005251419212235266960000004788435037789600649_);
  }

  .st39 {
    fill: url(#SVGID_00000164514063024190585090000008400348729658786238_);
  }

  .st40 {
    fill: url(#SVGID_00000067931637389363461050000016260235475997698954_);
  }

  .st41 {
    fill: #3195CE;
  }

  .st42 {
    fill: url(#SVGID_00000025405257165130082650000005087553119148286618_);
  }

  .st43 {
    fill: url(#SVGID_00000001647867506238529620000003679362404831074743_);
  }

  .st44 {
    opacity: 0.5;
    fill: url(#SVGID_00000018934363803024683990000011041048534131086766_);
    enable-background: new;
  }

  .st45 {
    opacity: 0.5;
    fill: url(#SVGID_00000061460550931491306690000007063187047487451020_);
    enable-background: new;
  }

  .st46 {
    opacity: 0.3;
    fill: url(#SVGID_00000098220184322009837400000008280763124869097407_);
    enable-background: new;
  }

  .st47 {
    opacity: 0.3;
    fill: url(#SVGID_00000119806312348514284140000006799837230386291082_);
    enable-background: new;
  }

  .st48 {
    fill: url(#SVGID_00000036947206055850254780000009530937982620157841_);
  }

  .st49 {
    fill: url(#SVGID_00000058572612017114645160000005398390617875302570_);
  }

  .st50 {
    opacity: 0.5;
    fill: url(#SVGID_00000041986987671789154280000007695813547967702709_);
    enable-background: new;
  }

  .st51 {
    opacity: 0.72;
    fill: url(#SVGID_00000031908362922652640520000001420383156338362792_);
    enable-background: new;
  }

  .st52 {
    opacity: 0.3;
    fill: url(#SVGID_00000082345118062358738750000005856464147606774660_);
    enable-background: new;
  }

  .st53 {
    fill: url(#SVGID_00000072275767732755376250000008978647884865423535_);
  }

  .st54 {
    fill: url(#SVGID_00000168078673164469778510000003456304739377604998_);
  }

  .st55 {
    opacity: 0.5;
    fill: url(#SVGID_00000155107962742138231670000006507137276656718259_);
    enable-background: new;
  }

  .st56 {
    fill: url(#SVGID_00000103248064359303193870000012965118869521613222_);
  }

  .st57 {
    fill: url(#SVGID_00000108270314831112798840000003485443454767315372_);
  }

  .st58 {
    fill: url(#SVGID_00000091721703089376309050000013206617422938608542_);
  }

  .st59 {
    opacity: 0.2;
    fill: url(#SVGID_00000024690334481276510940000007073047834325320886_);
    enable-background: new;
  }

  .st60 {
    opacity: 0.72;
    fill: url(#SVGID_00000085969789160717970150000012101222020019047316_);
    enable-background: new;
  }

  .st61 {
    opacity: 0.72;
    fill: url(#SVGID_00000107566266847562544940000009006309772508940678_);
    enable-background: new;
  }

  .st62 {
    opacity: 0.72;
    fill: url(#SVGID_00000086669742144656490850000014643084339652351104_);
    enable-background: new;
  }

  .st63 {
    fill: url(#SVGID_00000043431428063795242930000010532826631313893256_);
  }
</style>
  <g class="st0">
	<path class="st1" d="M178,156.7c-2.6,5.2-5.7,9.6-9.1,12.7c-1,0.9-2.1,1.7-3.1,2.4c-1,0.7-2.1,1.2-3.1,1.7
		c-15.7,6.5-31.8-8.3-49.7-6.5c-15,1.5-25.9,9.8-35.5,16.8c-3.4,2.5-6.6,4.8-9.9,6.6c-0.9,0.5-1.8,1-2.7,1.4c-1,0.4-2,0.9-3.1,1.2
		c0,0,0,0,0,0l0,0c-13.9,4.8-37.4,4.6-47.8-5.7C3,176.6-10.2,141.8,19.7,96.9C53,47.1,144,40.2,168.3,56.7
		C193.5,73.7,192.5,128.1,178,156.7z"/>
    <g class="st2">
		<path class="st3" d="M179.9,77.1c2.8-2.2,5-5.1,6.5-8.3c0.2-0.5,0.5-1.1,0.5-1.6c0-1.1-0.8-2.1-1.7-2.6c-2.3-1.4-5.5-1.1-7.6,0.5
			s-3.2,4.5-3,7.2c0.1,1.5,0.6,3,1.7,4s3,1.2,4.1,0.2c0-0.5-0.7-0.8-1-0.5L179.9,77.1z"/>
      <path class="st3" d="M183.7,147.7c2.8-2.2,5-5.1,6.5-8.3c0.2-0.5,0.5-1.1,0.5-1.6c0-1.1-0.8-2.1-1.7-2.6c-2.3-1.4-5.5-1.1-7.6,0.5
			s-3.2,4.5-3,7.2c0.1,1.5,0.6,3,1.7,4s3,1.2,4.1,0.2c0-0.5-0.7-0.8-1-0.5L183.7,147.7z"/>
      <path class="st3" d="M180.6,66.2c1.5,0,2.9-0.9,3.6-2.1c-0.8-1.2-2-2.3-3.5-2.3c-1.4-0.1-3,1.1-2.9,2.5c0,1.5,2.1,2.5,3.1,1.4
			L180.6,66.2z"/>
      <path class="st3" d="M188.8,56.2c0.6,0.4,1.3,0.5,1.9,0.2c-0.1-0.3-0.2-0.6-0.3-0.8s-0.5-0.4-0.8-0.3c-0.4,0.1-0.5,0.6-0.6,1
			c-0.1-0.1-0.1-0.2-0.2-0.3L188.8,56.2z"/>
      <path class="st3" d="M187.6,58.5c-0.1,0.2-0.3,0.3-0.5,0.4c-0.1-0.5,0.2-1,0.5-1.4c0.2-0.2,0.5-0.5,0.7-0.4
			c0.2,0.1,0.3,0.3,0.5,0.4c0.3,0.3,0.9,0.3,0.9,0.7c0,0.2-0.2,0.4-0.4,0.5s-0.5,0-0.7,0c-0.5-0.1-1-0.2-1.5-0.3L187.6,58.5z"/>
      <path class="st4" d="M206.2,30c0.4-0.1,0.3-0.8-0.1-1c-0.4-0.2-0.8,0-1.2,0.2c0.2,0.6,0.7,1,1.3,1L206.2,30z"/>
      <path class="st3" d="M194.6,20.3c-0.2,0-0.4-0.2-0.4-0.4s0.1-0.4,0.2-0.5c0.1-0.1,0.2-0.1,0.3-0.2c0.3-0.1,0.6,0.1,0.6,0.4
			c0,0.3-0.2,0.5-0.5,0.6c-0.3,0-0.5-0.2-0.6-0.4L194.6,20.3z"/>
      <path class="st3" d="M187.2,50.1c-0.1,0.4,0.4,0.8,0.8,0.7c0-0.2,0.1-0.5,0-0.6c-0.1-0.2-0.3-0.4-0.5-0.3s-0.4,0.3-0.2,0.5
			L187.2,50.1z"/>
      <path class="st3" d="M185.7,59.4c0.3,0.4,0.8,0.6,1.3,0.6c0-0.4-0.1-0.8-0.1-1.2c0-0.2,0-0.4-0.1-0.6c-0.2-0.3-0.8-0.3-1,0
			S185.5,59,185.7,59.4L185.7,59.4z"/>
      <path class="st4" d="M194.6,26.1c0-0.1,0-0.3,0-0.4c-0.2-0.1-0.5,0-0.6,0.1s-0.1,0.5,0.1,0.6C194.3,26.6,194.6,26.4,194.6,26.1
			L194.6,26.1z"/>
      <path class="st3" d="M187.3,53.1c-0.2-0.1-0.5,0.1-0.6,0.4c0,0.3,0.1,0.5,0.1,0.8c0,0.3-0.1,0.6-0.4,0.7c-0.1,0.1-0.3,0.2-0.5,0.1
			c-0.1,0-0.2-0.1-0.2-0.2c-0.3-0.4-0.6-0.9-0.6-1.5s0.2-1.1,0.7-1.4c0.3-0.2,0.8-0.1,1.1,0.1C187.2,52.4,187.4,52.8,187.3,53.1
			L187.3,53.1z"/>
      <path class="st3" d="M192.3,58.5c0.2,0.3,0.7,0.2,0.9,0s0.3-0.6,0.2-1c0-0.1-0.1-0.3-0.3-0.3c-0.1,0-0.2,0.1-0.2,0.2
			c-0.2,0.4-0.5,0.7-0.7,1L192.3,58.5z"/>
      <path class="st3" d="M199.7,44.2c-0.7-0.2-0.9-1.2-0.5-1.7c0.5,0.2,1,0.5,1.3,1c0.3,0.5,0.1,1.2-0.4,1.4c-0.3-0.1-0.6-0.2-0.9-0.4
			L199.7,44.2z"/>
      <path class="st3" d="M168.4,88.6c0,0.1-0.3,0.2-0.4,0.1c-0.1-0.1-0.2-0.2-0.3-0.4c0-0.1-0.1-0.2-0.1-0.4c0-0.2,0.3-0.5,0.5-0.5
			c0.2,0,0.5,0.1,0.6,0.3c0.1,0.1,0.1,0.2,0.1,0.4s-0.1,0.2-0.3,0.2L168.4,88.6z"/>
      <path class="st3" d="M190.8,48.6c0.1,0,0.3,0,0.4,0c0-0.2,0-0.5-0.1-0.7s-0.5-0.2-0.5,0c0,0.1,0,0.2,0,0.2
			c0.1,0.3,0.2,0.5,0.2,0.8L190.8,48.6z"/>
      <path class="st3" d="M193.8,41.4c0.4-0.1,0.7-0.2,1-0.4c0.3-0.2,0.5-0.6,0.4-1c-0.1-0.2-0.2-0.3-0.3-0.4c-0.5-0.3-1.1-0.1-1.4,0.4
			S193.4,41.1,193.8,41.4L193.8,41.4z"/>
      <path class="st3"
            d="M197.5,40.3c0.2-0.2,0.3-0.4,0.5-0.5c-0.1-0.1-0.2-0.3-0.4-0.4c-0.3,0.2-0.5,0.6-0.3,0.9H197.5z"/>
      <path class="st3" d="M203.6,62.8c0.6-1.3,1-2.7,1-4.1c0-0.2,0-0.5-0.1-0.7c-0.2-0.4-0.6-0.6-1.1-0.7c-1.1-0.1-2.2,0.5-2.7,1.5
			c-0.5,1-0.4,2.2,0.1,3.1c0.3,0.5,0.7,1,1.3,1.1c0.6,0.2,1.3-0.1,1.5-0.6c-0.1-0.2-0.4-0.2-0.5,0L203.6,62.8z"/>
      <path class="st3" d="M174.9,57c0.7,0,1.3-0.4,1.7-1c-0.2-0.2-0.5-0.4-0.8-0.5c-0.3-0.1-0.6,0-0.8,0.2c-0.2,0.3-0.1,0.8,0.1,1.2
			c-0.1,0-0.2-0.1-0.3-0.1L174.9,57z"/>
      <path class="st3" d="M175.8,52.2c0.2-0.1,0.3-0.2,0.4-0.4c0.1-0.2,0-0.4,0-0.5c-0.1-0.5-0.2-1-0.2-1.5c-0.5,0.6-1,1.3-1.6,1.9
			c0,0-0.1,0.1-0.1,0.1c-0.2,0.1-0.4-0.1-0.7-0.1c-0.3,0-0.6,0.3-0.7,0.7C172.4,54.8,174.9,52.8,175.8,52.2z"/>
      <path class="st3" d="M174.4,61.5c0.5,0.1,1,0,1.5-0.3c-0.3-0.3-0.6-0.6-0.8-0.9c-0.1-0.1-0.3-0.3-0.5-0.4
			c-0.4-0.1-0.8,0.2-0.8,0.6C173.7,60.9,174,61.3,174.4,61.5L174.4,61.5z"/>
      <path class="st3" d="M179,56.8c0.3,0.1,0.7-0.2,0.7-0.5s-0.1-0.7-0.4-0.9c-0.1-0.1-0.3-0.1-0.4,0c-0.1,0.1-0.1,0.2-0.1,0.3
			c0,0.4,0,0.8,0,1.3L179,56.8z"/>
      <path class="st3" d="M182.7,61.5c0.4-0.1,0.7-0.2,1-0.4c0.3-0.2,0.5-0.6,0.4-1c-0.1-0.2-0.2-0.3-0.3-0.4c-0.5-0.3-1.1-0.1-1.4,0.4
			S182.2,61.2,182.7,61.5L182.7,61.5z"/>
      <path class="st3" d="M197.5,50.8c0.1-0.4-0.3-0.6-0.6-0.8c-0.3-0.2-0.7-0.4-0.7-0.8c0-0.1,0-0.2,0.1-0.3c0.2-0.2,0.5,0.1,0.7,0.2
			c0.2,0.1,0.4,0.1,0.6,0.1c0.5,0.1,0.9,0.5,0.9,1c-0.1,0.2-0.3,0.4-0.6,0.5c-0.3,0-0.5-0.1-0.6-0.4L197.5,50.8z"/>
      <path class="st3" d="M196.4,41.9c0.1-0.4-0.3-0.6-0.6-0.8c-0.3-0.2-0.7-0.4-0.7-0.8c0-0.1,0-0.2,0.1-0.3c0.2-0.2,0.5,0.1,0.7,0.2
			c0.2,0.1,0.4,0.1,0.6,0.1c0.5,0.1,0.9,0.5,0.9,1c-0.1,0.2-0.3,0.4-0.6,0.5c-0.3,0-0.5-0.1-0.6-0.4L196.4,41.9z"/>
      <path class="st3" d="M200.9,36.8c0.2-0.2,0.4-0.4,0.5-0.7c0,0,0-0.1,0-0.1c0-0.1-0.1-0.2-0.1-0.2c-0.2-0.1-0.5-0.1-0.6,0.1
			c-0.2,0.1-0.3,0.4-0.2,0.6c0,0.1,0.1,0.2,0.2,0.3S200.9,36.9,200.9,36.8c0-0.1,0-0.1-0.1-0.1L200.9,36.8z"/>
      <path class="st3" d="M175.7,71.8c0.7,0,1.3-0.4,1.7-1c-0.2-0.2-0.5-0.4-0.8-0.5c-0.3-0.1-0.6,0-0.8,0.2c-0.2,0.3-0.1,0.8,0.1,1.2
			c-0.1,0-0.2-0.1-0.3-0.1L175.7,71.8z"/>
      <path class="st3" d="M170.8,67.9c0.1,0.4,0.8,0.5,1,0.1c-0.1-0.2-0.2-0.4-0.4-0.5c-0.2-0.1-0.5-0.1-0.6,0.1
			c-0.1,0.2-0.1,0.5,0.1,0.5L170.8,67.9z"/>
      <path class="st3" d="M180.5,62.2c0.1,0.4,0.8,0.5,1,0.1c-0.1-0.2-0.2-0.4-0.4-0.5c-0.2-0.1-0.5-0.1-0.6,0.1
			c-0.1,0.2-0.1,0.5,0.1,0.5L180.5,62.2z"/>
      <path class="st3" d="M172.7,70.3c-0.3,0-0.4,0.4-0.2,0.7s0.4,0.4,0.5,0.6c0.2,0.2,0.2,0.5,0.1,0.8c0,0.2-0.1,0.3-0.3,0.4
			c-0.1,0-0.2,0-0.3,0c-0.5-0.2-1-0.4-1.4-0.8s-0.5-1-0.2-1.5c0.2-0.3,0.5-0.5,0.9-0.6c0.4,0,0.8,0.2,0.9,0.5L172.7,70.3z"/>
      <path class="st3" d="M195.4,47.8c-0.3,0-0.4,0.4-0.2,0.7s0.4,0.4,0.5,0.6c0.2,0.2,0.2,0.5,0.1,0.8c0,0.2-0.1,0.3-0.3,0.4
			c-0.1,0-0.2,0-0.3,0c-0.5-0.2-1-0.4-1.4-0.8s-0.5-1-0.2-1.5c0.2-0.3,0.5-0.5,0.9-0.6s0.8,0.2,0.9,0.5L195.4,47.8z"/>
      <path class="st3" d="M198.3,49.9c-0.3,0-0.4,0.4-0.2,0.7s0.4,0.4,0.5,0.6c0.2,0.2,0.2,0.5,0.1,0.8c0,0.2-0.1,0.3-0.3,0.4
			c-0.1,0-0.2,0-0.3,0c-0.5-0.2-1-0.4-1.4-0.8s-0.5-1-0.2-1.5c0.2-0.3,0.5-0.5,0.9-0.6c0.4,0,0.8,0.2,0.9,0.5L198.3,49.9z"/>
      <path class="st3" d="M194.2,53.5c-0.3,0-0.4,0.4-0.2,0.7s0.4,0.4,0.5,0.6c0.2,0.2,0.2,0.5,0.1,0.8c0,0.2-0.1,0.3-0.3,0.4
			c-0.1,0-0.2,0-0.3,0c-0.5-0.2-1-0.4-1.4-0.8s-0.5-1-0.2-1.5c0.2-0.3,0.5-0.5,0.9-0.6c0.4,0,0.8,0.2,0.9,0.5L194.2,53.5z"/>
      <path class="st3" d="M175.1,20.1c-0.3,0-0.4,0.4-0.2,0.7s0.4,0.4,0.5,0.6c0.2,0.2,0.2,0.5,0.1,0.8c0,0.2-0.1,0.3-0.3,0.4
			c-0.1,0-0.2,0-0.3,0c-0.5-0.2-1-0.4-1.4-0.8s-0.5-1-0.2-1.5c0.2-0.3,0.5-0.5,0.9-0.6c0.4,0,0.8,0.2,0.9,0.5L175.1,20.1z"/>
      <path class="st3" d="M172.8,64.5c0.1-0.1,0.2-0.2,0.4-0.3c-0.1-0.2-0.2-0.4-0.5-0.5c-0.2-0.1-0.5,0.1-0.4,0.4
			c0,0.1,0.1,0.1,0.2,0.2c0.2,0.2,0.4,0.3,0.7,0.5L172.8,64.5z"/>
      <path class="st3" d="M181.2,36.9c0.4-0.1,0.7-0.2,1-0.4c0.3-0.2,0.5-0.6,0.4-1c-0.1-0.2-0.2-0.3-0.3-0.4c-0.5-0.3-1.1-0.1-1.4,0.4
			S180.8,36.6,181.2,36.9L181.2,36.9z"/>
      <path class="st3"
            d="M183.6,67c-0.3,0.4-1.1,0.3-1.2-0.2c0.1-0.3,0.2-0.5,0.4-0.7c0.3,0.1,0.5,0.4,0.6,0.7L183.6,67z"/>
      <path class="st4" d="M185.5,35.1c0.2-0.1,0.4-0.2,0.5-0.3c0.1-0.2,0.2-0.4,0.1-0.6c-0.2-0.3-0.6-0.2-0.9-0.4
			c-0.3-0.2-0.4-0.6-0.7-0.7c-0.3-0.1-0.6,0.3-0.6,0.6s0.2,0.6,0.5,0.9c0.2,0.2,0.4,0.5,0.7,0.5c0.3,0.1,0.6,0,0.8-0.3L185.5,35.1z"
      />
      <path class="st3" d="M189.9,53.2c1.2,0.9,2.8,1,4.1,0.5c0.1-1.4-0.2-3-1.4-3.9c-1.1-0.9-3-0.9-3.9,0.3c-0.8,1.2,0.2,3.2,1.6,3
			L189.9,53.2z"/>
      <path class="st3" d="M186.2,69.1c-0.2-0.1-0.2-0.4-0.1-0.5c0.1-0.2,0.3-0.2,0.5-0.3c0.1,0,0.2,0,0.4,0c0.2,0.1,0.4,0.4,0.2,0.7
			c-0.1,0.2-0.5,0.3-0.7,0.2c-0.2-0.1-0.3-0.5-0.2-0.7L186.2,69.1z"/>
      <path class="st3" d="M187.9,61.4c-0.1-0.4-0.5-0.5-0.9-0.6s-0.8-0.1-0.9-0.5c0-0.1,0-0.2,0-0.3c0.1-0.2,0.5-0.1,0.7,0
			c0.2,0,0.4-0.1,0.6-0.1c0.5-0.1,1,0.2,1.2,0.6c0,0.3-0.2,0.5-0.4,0.6s-0.5,0-0.7-0.1L187.9,61.4z"/>
      <path class="st3" d="M186,49.9c0.1-0.1,0.2-0.2,0.2-0.3c-0.1-0.2-0.4-0.3-0.6-0.2s-0.4,0.4-0.2,0.6S185.8,50.1,186,49.9L186,49.9z
			"/>
      <path class="st3" d="M184.5,57.8c-0.1,0.1-0.3,0-0.4-0.1s0-0.3,0-0.5c0-0.1,0.1-0.2,0.2-0.4c0.2-0.2,0.5-0.2,0.7-0.1
			c0.2,0.1,0.3,0.4,0.3,0.6c0,0.1,0,0.2-0.1,0.3s-0.2,0.1-0.3,0L184.5,57.8z"/>
      <path class="st3" d="M173.3,53.2c0.3,1.4,1.5,2.6,2.8,3c1-1,1.8-2.4,1.5-3.9s-1.7-2.6-3.1-2.3c-1.4,0.4-2,2.6-0.7,3.3L173.3,53.2z
			"/>
      <path class="st3" d="M175,64.4c0.4-0.1,0.3-0.8-0.1-1c-0.4-0.2-0.8,0-1.2,0.2c0.2,0.6,0.7,1,1.3,1L175,64.4z"/>
      <path class="st3" d="M190.2,66.6c0.1-0.1,0.2-0.2,0.2-0.3c-0.1-0.2-0.4-0.3-0.6-0.2s-0.4,0.4-0.2,0.6S190,66.8,190.2,66.6
			L190.2,66.6z"/>
      <path class="st3" d="M184.8,61.2c1.2-0.9,2.2-2.1,2.9-3.5c0.1-0.2,0.2-0.5,0.2-0.7c0-0.5-0.3-0.9-0.7-1.2c-1-0.6-2.4-0.5-3.3,0.1
			c-0.9,0.7-1.5,1.9-1.4,3.1c0,0.6,0.2,1.3,0.7,1.7c0.5,0.4,1.3,0.5,1.8,0.1c0-0.2-0.3-0.4-0.5-0.2L184.8,61.2z"/>
      <path class="st3" d="M170.7,40.1c1.5,0,2.9-0.9,3.6-2.1c-0.8-1.2-2-2.3-3.5-2.3c-1.4-0.1-3,1.1-2.9,2.5c0,1.5,2.1,2.5,3.1,1.4
			L170.7,40.1z"/>
      <path class="st3" d="M197.9,37.3c0.7,0,1.3-0.4,1.7-1c-0.2-0.2-0.5-0.4-0.8-0.5c-0.3-0.1-0.6,0-0.8,0.2c-0.2,0.3-0.1,0.8,0.1,1.2
			c-0.1,0-0.2-0.1-0.3-0.1L197.9,37.3z"/>
      <path class="st3" d="M198.9,32.5c0.2-0.1,0.3-0.2,0.4-0.4c0.1-0.2,0-0.4,0-0.5c-0.1-0.5-0.2-1-0.2-1.5c-0.5,0.6-1,1.3-1.6,1.9
			c0,0-0.1,0.1-0.1,0.1c-0.2,0.1-0.4-0.1-0.7-0.1c-0.3,0-0.6,0.3-0.7,0.7C195.4,35,198,33,198.9,32.5z"/>
      <path class="st3" d="M189.2,60.3c0.2-0.2,0.3-0.4,0.5-0.5c-0.4-0.3-1-0.4-1.4-0.1c-0.4,0.3-0.4,1,0.1,1.2c0.3,0.1,0.8,0.1,0.7,0.4
			L189.2,60.3z"/>
      <path class="st3" d="M190,39.4c-0.1,0.2-0.3,0.3-0.5,0.4c-0.1-0.5,0.2-1,0.5-1.4c0.2-0.2,0.5-0.5,0.7-0.4c0.2,0.1,0.3,0.3,0.5,0.4
			c0.3,0.3,0.9,0.3,0.9,0.7c0,0.2-0.2,0.4-0.4,0.5s-0.5,0-0.7,0c-0.5-0.1-1-0.2-1.5-0.3L190,39.4z"/>
      <path class="st3" d="M183.3,35.1c0.4-0.1,0.3-0.8-0.1-1c-0.4-0.2-0.8,0-1.2,0.2c0.2,0.6,0.7,1,1.3,1L183.3,35.1z"/>
      <path class="st4" d="M191.4,31.1c-0.2,0-0.4-0.2-0.4-0.4s0.1-0.4,0.2-0.5c0.1-0.1,0.2-0.1,0.3-0.2c0.3-0.1,0.6,0.1,0.6,0.4
			c0,0.3-0.2,0.5-0.5,0.6c-0.3,0-0.5-0.2-0.6-0.4L191.4,31.1z"/>
      <path class="st3" d="M192.9,33.4c0.1,0.4,0.8,0.5,1,0.1c-0.1-0.2-0.2-0.4-0.4-0.5c-0.2-0.1-0.5-0.1-0.6,0.1
			c-0.1,0.2-0.1,0.5,0.1,0.5L192.9,33.4z"/>
      <path class="st3" d="M197.4,41.8c0.5,0.1,1,0,1.5-0.3c-0.3-0.3-0.6-0.6-0.8-0.9c-0.1-0.1-0.3-0.3-0.5-0.4
			c-0.4-0.1-0.8,0.2-0.8,0.6S197,41.6,197.4,41.8L197.4,41.8z"/>
      <path class="st4" d="M185.6,30.4c-0.3,0-0.6-0.2-0.7-0.4s-0.1-0.6,0.1-0.8c0.1-0.1,0.4-0.2,0.5-0.1c0,0.1,0.1,0.1,0.1,0.2
			c0,0.4,0.1,0.7,0.1,1.1C185.6,30.4,185.6,30.4,185.6,30.4L185.6,30.4z"/>
      <path class="st4" d="M182.8,25.3c0.1-0.4-0.3-0.6-0.6-0.8c-0.3-0.2-0.7-0.4-0.7-0.8c0-0.1,0-0.2,0.1-0.3c0.2-0.2,0.5,0.1,0.7,0.2
			c0.2,0.1,0.4,0.1,0.6,0.1c0.5,0.1,0.9,0.5,0.9,1c-0.1,0.2-0.3,0.4-0.6,0.5c-0.3,0-0.5-0.1-0.6-0.4L182.8,25.3z"/>
      <path class="st4" d="M199.8,53.8c0.1-0.4-0.3-0.6-0.6-0.8c-0.3-0.2-0.7-0.4-0.7-0.8c0-0.1,0-0.2,0.1-0.3c0.2-0.2,0.5,0.1,0.7,0.2
			c0.2,0.1,0.4,0.1,0.6,0.1c0.5,0.1,0.9,0.5,0.9,1c-0.1,0.2-0.3,0.4-0.6,0.5c-0.3,0-0.5-0.1-0.6-0.4L199.8,53.8z"/>
      <path class="st4"
            d="M186,23.6c0.1-0.1,0.2-0.2,0.3-0.2c0-0.2-0.2-0.4-0.5-0.4s-0.5,0.2-0.4,0.5S185.8,23.8,186,23.6L186,23.6z"/>
      <path class="st3" d="M194.8,35.8c-0.3,0-0.4,0.4-0.2,0.7s0.4,0.4,0.5,0.6c0.2,0.2,0.2,0.5,0.1,0.8c0,0.2-0.1,0.3-0.3,0.4
			c-0.1,0-0.2,0-0.3,0c-0.5-0.2-1-0.4-1.4-0.8s-0.5-1-0.2-1.5c0.2-0.3,0.5-0.5,0.9-0.6C194.4,35.3,194.7,35.5,194.8,35.8L194.8,35.8
			z"/>
      <path class="st3" d="M202.1,37.1c0.3,0.1,0.7-0.2,0.7-0.5s-0.1-0.7-0.4-0.9c-0.1-0.1-0.3-0.1-0.4,0c-0.1,0.1-0.1,0.2-0.1,0.3
			c0,0.4,0,0.8,0,1.3L202.1,37.1z"/>
      <path class="st3" d="M183.5,41.1c-0.7-0.2-0.9-1.2-0.5-1.7c0.5,0.2,1,0.5,1.3,1c0.3,0.5,0.1,1.2-0.4,1.4c-0.3-0.1-0.6-0.2-0.9-0.4
			L183.5,41.1z"/>
      <path class="st4" d="M194.9,30.1c0.1-0.1,0.2-0.2,0.4-0.3c-0.1-0.2-0.2-0.4-0.5-0.5c-0.2-0.1-0.5,0.1-0.4,0.4
			c0,0.1,0.1,0.1,0.2,0.2c0.2,0.2,0.4,0.3,0.7,0.5L194.9,30.1z"/>
      <path class="st3" d="M180.4,66c0.4-0.1,0.7-0.2,1-0.4c0.3-0.2,0.5-0.6,0.4-1c-0.1-0.2-0.2-0.3-0.3-0.4c-0.5-0.3-1.1-0.1-1.4,0.4
			S179.9,65.7,180.4,66L180.4,66z"/>
      <path class="st3"
            d="M174.5,45.4c0.2-0.2,0.3-0.4,0.5-0.5c-0.1-0.1-0.2-0.3-0.4-0.4c-0.3,0.2-0.5,0.6-0.3,0.9H174.5z"/>
      <path class="st3" d="M168.7,81c-0.2,0-0.4-0.2-0.4-0.4s0.1-0.4,0.2-0.5c0.1-0.1,0.2-0.1,0.3-0.2c0.3-0.1,0.6,0.1,0.6,0.4
			c0,0.3-0.2,0.5-0.5,0.6c-0.3,0-0.5-0.2-0.6-0.4L168.7,81z"/>
      <path class="st3"
            d="M180.5,44.1c0.2-0.2,0.3-0.4,0.5-0.5c-0.1-0.1-0.2-0.3-0.4-0.4c-0.3,0.2-0.5,0.6-0.3,0.9H180.5z"/>
      <path class="st3" d="M196,56.9c0.3,0.1,0.5-0.3,0.4-0.6s-0.2-0.5-0.3-0.8c-0.1-0.3,0-0.6,0.1-0.8c0.1-0.1,0.2-0.3,0.4-0.3
			c0.1,0,0.2,0.1,0.3,0.1c0.4,0.3,0.9,0.7,1.1,1.2c0.2,0.5,0.2,1.1-0.2,1.5c-0.3,0.3-0.7,0.4-1,0.3S196.1,57.2,196,56.9L196,56.9z"
      />
      <path class="st3" d="M181.6,59.2c-0.2,0-0.4,0.1-0.6,0.2c-0.2,0.1-0.3,0.3-0.3,0.5c0.1,0.3,0.5,0.4,0.7,0.7
			c0.2,0.3,0.2,0.7,0.5,0.9c0.3,0.2,0.7-0.1,0.8-0.4c0.1-0.3,0-0.7-0.2-1c-0.1-0.3-0.3-0.5-0.5-0.7s-0.6-0.2-0.8,0L181.6,59.2z"/>
      <path class="st3" d="M192,47.3c-0.7,1-1.2,2.2-1.4,3.4c0,0.2-0.1,0.4,0,0.6c0.1,0.4,0.5,0.6,0.8,0.7c0.9,0.3,2-0.1,2.5-0.9
			c0.6-0.8,0.7-1.8,0.3-2.7c-0.2-0.5-0.5-1-1-1.2s-1.1-0.1-1.4,0.3c0,0.2,0.3,0.2,0.4,0.1L192,47.3z"/>
      <path class="st3" d="M197.4,54.6c0.2,0.1,0.3,0.2,0.5,0.2c0.2,0,0.3-0.1,0.5-0.3c0.4-0.3,0.8-0.6,1.2-0.9
			c-0.8-0.1-1.6-0.3-2.5-0.4c-0.1,0-0.1,0-0.2-0.1c-0.2-0.1-0.1-0.4-0.2-0.6c-0.1-0.3-0.6-0.3-0.9-0.2
			C193.5,52.9,196.5,54.1,197.4,54.6z"/>
      <path class="st3" d="M192.4,47.4c0.1-0.1,0.2-0.1,0.4-0.2c0-0.2-0.2-0.4-0.4-0.5s-0.5,0.2-0.5,0.4
			C191.8,47.4,192.1,47.5,192.4,47.4L192.4,47.4z"/>
      <path class="st3" d="M198.2,50.8c0.1,0.3,0.5,0.5,0.8,0.4s0.5-0.5,0.6-0.8c0-0.1,0-0.3-0.2-0.4c-0.1,0-0.2,0-0.3,0.1
			c-0.4,0.2-0.7,0.4-1.1,0.7L198.2,50.8z"/>
      <path class="st3" d="M194.9,47.6c0.4,0.6,1,1,1.7,1c0-0.3,0.1-0.6,0-0.9s-0.3-0.6-0.6-0.6c-0.4,0-0.7,0.3-1,0.7
			c0-0.1,0-0.2-0.1-0.3L194.9,47.6z"/>
      <path class="st3" d="M194,44.7c-0.2,0-0.4-0.1-0.6-0.2c0.4-0.4,1-0.3,1.5-0.2c0.3,0,0.6,0.2,0.7,0.5c0,0.2-0.1,0.4-0.1,0.6
			c-0.1,0.4,0.2,0.9-0.1,1.2c-0.2,0.1-0.5,0.1-0.6-0.1c-0.2-0.2-0.2-0.4-0.3-0.6c-0.1-0.5-0.3-1-0.4-1.5L194,44.7z"/>
      <path class="st3" d="M195.6,52.3c0.1,0.5,0.5,0.9,1,1.1c0.1-0.4,0.3-0.8,0.4-1.2c0.1-0.2,0.1-0.4,0.1-0.6
			c-0.1-0.4-0.6-0.6-0.9-0.4S195.6,51.8,195.6,52.3L195.6,52.3z"/>
      <path class="st3" d="M199.5,47.1c-0.1-0.2-0.5-0.1-0.7,0.1c-0.1,0.2-0.1,0.5-0.3,0.8c-0.1,0.3-0.4,0.5-0.6,0.5
			c-0.2,0-0.4,0-0.5-0.1c-0.1-0.1-0.1-0.2-0.1-0.3c-0.1-0.5-0.2-1.1,0-1.6c0.2-0.5,0.6-1,1.2-1c0.4,0,0.8,0.2,0.9,0.5s0.2,0.8,0,1.1
			L199.5,47.1z"/>
      <path class="st3" d="M182.5,52.2c0.3,0.2,0.5,0.5,0.9,0.6s0.8,0.1,1-0.2c0.1-0.1,0.2-0.3,0.2-0.5c0-0.5-0.5-1-1-1
			S182.5,51.6,182.5,52.2L182.5,52.2z"/>
      <path class="st3" d="M187.4,58.6c0.4,0.6,1,1,1.7,1c0-0.3,0.1-0.6,0-0.9s-0.3-0.6-0.6-0.6c-0.4,0-0.7,0.3-1,0.7
			c0-0.1,0-0.2-0.1-0.3L187.4,58.6z"/>
      <path class="st3" d="M194.1,43.5c0.1-0.4-0.2-0.7-0.6-0.9c-0.3-0.2-0.7-0.4-0.7-0.8c0-0.1,0-0.2,0.1-0.3c0.2-0.1,0.5,0.1,0.7,0.2
			c0.2,0.1,0.4,0.1,0.6,0.2c0.5,0.1,0.8,0.6,0.9,1.1c-0.1,0.2-0.4,0.4-0.6,0.4s-0.5-0.2-0.6-0.4L194.1,43.5z"/>
      <path class="st3" d="M171.8,60.7c0-0.1,0.1-0.3,0.2-0.4c-0.1-0.2-0.4-0.2-0.6-0.1c-0.2,0.1-0.3,0.4-0.1,0.6
			C171.4,61,171.7,60.9,171.8,60.7L171.8,60.7z"/>
      <path class="st3" d="M192.2,52.4c0.1,0,0.3,0.1,0.4,0.2c0.1-0.2,0.2-0.4,0.2-0.6s-0.4-0.4-0.5-0.2c0,0.1-0.1,0.2-0.1,0.2
			c0,0.3-0.1,0.5-0.1,0.8L192.2,52.4z"/>
	</g>
    <g class="st2">
		<path class="st5" d="M115.2,157.8c-1.9-1.5-4.1-2.6-6.5-3.1c-0.4-0.1-0.8-0.1-1.2-0.1c-0.7,0.2-1.2,0.8-1.5,1.5
			c-0.6,1.7,0.1,3.8,1.5,5c1.4,1.2,3.5,1.5,5.2,0.9c1-0.3,1.9-0.9,2.4-1.8s0.3-2.1-0.5-2.7c-0.3,0.1-0.4,0.6-0.2,0.8L115.2,157.8z"
    />
      <path class="st5"
            d="M107.8,159c-0.2-1-1-1.8-2-2.1c-0.7,0.7-1.2,1.7-1,2.6s1.2,1.8,2.1,1.5s1.3-1.8,0.5-2.3L107.8,159z"/>
      <path class="st5" d="M99.9,155c0.2-0.4,0.1-0.9-0.1-1.3c-0.2,0.1-0.4,0.2-0.5,0.4s-0.2,0.4-0.1,0.6c0.1,0.2,0.5,0.3,0.8,0.3
			c0,0.1-0.1,0.1-0.2,0.2L99.9,155z"/>
      <path class="st5" d="M101.7,155.5c0.1,0,0.2,0.1,0.3,0.2c-0.3,0.2-0.7,0-1-0.1c-0.2-0.1-0.4-0.2-0.4-0.4c0-0.1,0.1-0.2,0.2-0.4
			c0.1-0.2,0.1-0.6,0.3-0.7c0.1,0,0.3,0,0.4,0.2c0.1,0.1,0.1,0.3,0.1,0.5c0,0.3,0,0.7,0,1L101.7,155.5z"/>
      <path class="st6"
            d="M79.9,147.4c-0.1-0.3-0.6-0.1-0.6,0.2c0,0.3,0.1,0.5,0.3,0.8c0.4-0.2,0.5-0.6,0.5-1L79.9,147.4z"/>
      <path class="st5" d="M75.2,156.6c0,0.1-0.1,0.3-0.2,0.3s-0.3,0-0.4-0.1c-0.1,0-0.1-0.1-0.2-0.2c-0.1-0.2,0-0.4,0.2-0.5
			c0.2-0.1,0.4,0,0.5,0.2c0.1,0.2,0,0.4-0.2,0.5L75.2,156.6z"/>
      <path class="st5"
            d="M96.1,157c0.3,0,0.5-0.4,0.3-0.6c-0.1,0-0.3,0-0.4,0.1s-0.2,0.3-0.1,0.4c0.1,0.1,0.3,0.2,0.4,0.1L96.1,157z"
      />
      <path class="st5" d="M102.6,156.6c0.2-0.3,0.3-0.6,0.2-1c-0.3,0.1-0.5,0.2-0.8,0.3c-0.1,0-0.3,0.1-0.4,0.2
			c-0.2,0.2-0.1,0.5,0.1,0.7C102,156.9,102.3,156.8,102.6,156.6L102.6,156.6z"/>
      <path class="st6" d="M79.1,155.7c-0.1,0-0.2,0-0.3,0.1c0,0.1,0,0.3,0.2,0.4c0.1,0.1,0.3,0,0.4-0.2S79.3,155.7,79.1,155.7
			L79.1,155.7z"/>
      <path class="st5" d="M98.1,156.5c-0.1,0.2,0.2,0.3,0.4,0.3s0.4-0.1,0.5-0.2s0.4,0,0.5,0.1c0.1,0.1,0.2,0.2,0.1,0.3
			c0,0.1-0.1,0.1-0.1,0.2c-0.2,0.3-0.5,0.5-0.9,0.6c-0.4,0.1-0.8,0-1-0.3c-0.2-0.2-0.2-0.5-0.1-0.7C97.7,156.7,98,156.5,98.1,156.5
			L98.1,156.5z"/>
      <path class="st5" d="M101,152.4c0.1-0.2,0.1-0.5-0.1-0.6c-0.2-0.1-0.5-0.1-0.7,0c-0.1,0-0.2,0.1-0.1,0.2c0,0.1,0.1,0.1,0.2,0.1
			C100.4,152.2,100.7,152.4,101,152.4L101,152.4z"/>
      <path class="st5" d="M90.3,149.6c0,0.5-0.6,0.8-1.1,0.6c0.1-0.4,0.2-0.7,0.5-1c0.3-0.2,0.8-0.3,1,0c0,0.2-0.1,0.4-0.1,0.6
			L90.3,149.6z"/>
      <path class="st5" d="M124.6,163.7c0.1,0,0.2,0.1,0.1,0.2c0,0.1-0.1,0.2-0.2,0.2c-0.1,0-0.1,0.1-0.2,0.1c-0.2,0-0.3-0.1-0.4-0.3
			c0-0.2,0-0.4,0.1-0.5c0.1-0.1,0.1-0.1,0.2-0.1s0.2,0.1,0.2,0.1L124.6,163.7z"/>
      <path class="st5" d="M94.6,154.9c0-0.1,0-0.2-0.1-0.3c-0.1,0-0.3,0-0.4,0.2c-0.1,0.1,0,0.4,0.1,0.4c0.1,0,0.1,0,0.2-0.1
			c0.2-0.1,0.3-0.2,0.5-0.3L94.6,154.9z"/>
      <path class="st5" d="M89.4,153.9c-0.1-0.2-0.2-0.4-0.4-0.6s-0.5-0.2-0.7-0.1c-0.1,0.1-0.2,0.2-0.2,0.3c-0.1,0.4,0.1,0.8,0.4,0.9
			C88.8,154.5,89.2,154.3,89.4,153.9L89.4,153.9z"/>
      <path class="st5"
            d="M88.1,151.7c-0.1-0.1-0.3-0.2-0.4-0.2c-0.1,0.1-0.1,0.2-0.2,0.3c0.2,0.2,0.5,0.2,0.7,0L88.1,151.7z"/>
      <path class="st5" d="M102.1,144.2c-0.9-0.2-1.9-0.2-2.9,0c-0.1,0-0.3,0.1-0.4,0.2c-0.2,0.2-0.3,0.5-0.3,0.8
			c0.1,0.7,0.7,1.4,1.4,1.5s1.5,0,2-0.5c0.3-0.3,0.5-0.6,0.6-1s-0.2-0.8-0.6-0.9c-0.1,0.1-0.1,0.3,0.1,0.3L102.1,144.2z"/>
      <path class="st5" d="M102.6,164.2c-0.1-0.4-0.5-0.8-0.9-1c-0.1,0.2-0.2,0.4-0.2,0.6c0,0.2,0.1,0.4,0.3,0.5
			c0.3,0.1,0.5-0.1,0.8-0.2c0,0.1,0,0.1,0,0.2L102.6,164.2z"/>
      <path class="st5" d="M99.3,164.2c-0.1-0.1-0.2-0.2-0.3-0.2c-0.1,0-0.2,0-0.4,0.1c-0.3,0.1-0.6,0.2-1,0.3c0.5,0.2,1,0.5,1.5,0.7
			c0,0,0.1,0,0.1,0.1c0.1,0.1,0,0.3,0,0.5c0,0.2,0.3,0.3,0.5,0.3C101.5,166.2,99.8,164.8,99.3,164.2z"/>
      <path class="st5" d="M105.7,163.8c0-0.4-0.1-0.7-0.4-0.9c-0.2,0.2-0.3,0.5-0.5,0.7c-0.1,0.1-0.2,0.2-0.2,0.4
			c0,0.3,0.3,0.5,0.5,0.4C105.4,164.4,105.6,164.1,105.7,163.8L105.7,163.8z"/>
      <path class="st5" d="M121.9,168.7c-0.1,0-0.2,0-0.3,0.1c0,0.1,0,0.3,0.2,0.4c0.1,0.1,0.3,0,0.4-0.2S122.1,168.6,121.9,168.7
			L121.9,168.7z"/>
      <path class="st5" d="M101.9,161.4c0-0.2-0.2-0.4-0.5-0.4c-0.2,0-0.4,0.2-0.5,0.4c0,0.1-0.1,0.2,0,0.3c0.1,0,0.1,0,0.2,0
			C101.4,161.6,101.6,161.5,101.9,161.4L101.9,161.4z"/>
      <path class="st5" d="M104.4,158.3c-0.1-0.2-0.2-0.4-0.4-0.6s-0.5-0.2-0.7-0.1c-0.1,0.1-0.2,0.2-0.2,0.3c-0.1,0.4,0.1,0.8,0.4,0.9
			C103.9,158.9,104.3,158.6,104.4,158.3L104.4,158.3z"/>
      <path class="st5" d="M95.1,150.1c-0.2,0-0.4,0.3-0.5,0.5c-0.1,0.2-0.2,0.5-0.4,0.6c-0.1,0-0.1,0-0.2,0c-0.1-0.1,0-0.3,0-0.5
			c0-0.1,0-0.3,0-0.4c0-0.3,0.2-0.7,0.5-0.8c0.2,0,0.3,0.1,0.4,0.3s0,0.4-0.1,0.5L95.1,150.1z"/>
      <path class="st5" d="M89.3,152.1c-0.2,0-0.4,0.3-0.5,0.5c-0.1,0.2-0.2,0.5-0.4,0.6c-0.1,0-0.1,0-0.2,0c-0.1-0.1,0-0.3,0-0.5
			c0-0.1,0-0.3,0-0.4c0-0.3,0.2-0.7,0.5-0.8c0.2,0,0.3,0.1,0.4,0.3c0,0.2,0,0.4-0.1,0.5L89.3,152.1z"/>
      <path class="st5" d="M85.2,149.9c-0.2-0.1-0.4-0.2-0.5-0.2c0,0-0.1,0-0.1,0c-0.1,0-0.1,0.1-0.1,0.1c0,0.1,0,0.3,0.1,0.4
			c0.1,0.1,0.3,0.1,0.4,0.1c0.1,0,0.2-0.1,0.2-0.1C85.3,150,85.3,149.9,85.2,149.9C85.2,149.9,85.2,149.9,85.2,149.9L85.2,149.9z"/>
      <path class="st5" d="M112.3,161.4c-0.1-0.4-0.5-0.8-0.9-1c-0.1,0.2-0.2,0.4-0.2,0.6c0,0.2,0.1,0.4,0.3,0.5
			c0.3,0.1,0.5-0.1,0.8-0.2c0,0.1,0,0.1,0,0.2L112.3,161.4z"/>
      <path class="st5" d="M110.4,165.3c0.2-0.2,0.2-0.6-0.1-0.7c-0.1,0.1-0.2,0.2-0.3,0.4c0,0.1,0,0.3,0.1,0.4c0.1,0.1,0.3,0,0.3-0.2
			L110.4,165.3z"/>
      <path class="st5" d="M105.2,159.7c0.2-0.2,0.2-0.6-0.1-0.7c-0.1,0.1-0.2,0.2-0.3,0.4c0,0.1,0,0.3,0.1,0.4c0.1,0.1,0.3,0,0.3-0.2
			L105.2,159.7z"/>
      <path class="st5" d="M111.7,163.6c0.1,0.2,0.3,0.2,0.5,0c0.1-0.1,0.2-0.3,0.3-0.5c0.1-0.1,0.3-0.2,0.5-0.2c0.1,0,0.2,0,0.3,0.1
			c0,0.1,0,0.1,0,0.2c0,0.4-0.1,0.8-0.3,1c-0.2,0.3-0.6,0.5-1,0.4c-0.2-0.1-0.5-0.3-0.5-0.5S111.6,163.7,111.7,163.6L111.7,163.6z"
      />
      <path class="st5" d="M93.3,151.9c0.1,0.2,0.3,0.2,0.5,0c0.1-0.1,0.2-0.3,0.3-0.5c0.1-0.1,0.3-0.2,0.5-0.2c0.1,0,0.2,0,0.3,0.1
			c0,0.1,0,0.1,0,0.2c0,0.4-0.1,0.8-0.3,1c-0.2,0.3-0.6,0.5-1,0.4c-0.2-0.1-0.5-0.3-0.5-0.5S93.2,152,93.3,151.9L93.3,151.9z"/>
      <path class="st5" d="M94.3,149.7c0.1,0.2,0.3,0.2,0.5,0c0.1-0.1,0.2-0.3,0.3-0.5c0.1-0.1,0.3-0.2,0.5-0.2c0.1,0,0.2,0,0.3,0.1
			c0,0.1,0,0.1,0,0.2c0,0.4-0.1,0.8-0.3,1c-0.2,0.3-0.6,0.5-1,0.4c-0.2-0.1-0.5-0.3-0.5-0.5S94.1,149.8,94.3,149.7L94.3,149.7z"/>
      <path class="st5" d="M97.4,151.8c0.1,0.2,0.3,0.2,0.5,0s0.2-0.3,0.3-0.5c0.1-0.1,0.3-0.2,0.5-0.2c0.1,0,0.2,0,0.3,0.1
			c0,0.1,0,0.1,0,0.2c0,0.4-0.1,0.8-0.3,1c-0.2,0.3-0.6,0.5-1,0.4c-0.2-0.1-0.5-0.3-0.5-0.5S97.2,152,97.4,151.8L97.4,151.8z"/>
      <path class="st5" d="M78,169.6c0,0.2,0.3,0.2,0.5,0c0.1-0.1,0.2-0.3,0.3-0.5c0.1-0.1,0.3-0.2,0.5-0.2c0.1,0,0.2,0,0.3,0.1
			c0,0.1,0,0.1,0,0.2c0,0.4-0.1,0.8-0.3,1c-0.2,0.3-0.6,0.5-1,0.4c-0.2-0.1-0.5-0.3-0.5-0.5S77.9,169.7,78,169.6L78,169.6z"/>
      <path class="st5" d="M107.9,164.4c-0.1-0.1-0.2-0.1-0.2-0.2c-0.1,0.1-0.2,0.2-0.2,0.4c0,0.1,0.2,0.3,0.3,0.2c0,0,0.1-0.1,0.1-0.1
			c0.1-0.2,0.1-0.3,0.2-0.5L107.9,164.4z"/>
      <path class="st5" d="M88.3,163c-0.1-0.2-0.2-0.4-0.4-0.6s-0.5-0.2-0.7-0.1c-0.1,0.1-0.2,0.2-0.2,0.3c-0.1,0.4,0.1,0.8,0.4,0.9
			C87.7,163.6,88.1,163.3,88.3,163L88.3,163z"/>
      <path class="st5"
            d="M107.9,156.8c0.3,0.1,0.4,0.7,0.1,0.9c-0.2,0-0.4-0.1-0.5-0.2c0-0.2,0.2-0.4,0.4-0.5L107.9,156.8z"/>
      <path class="st6" d="M86.4,160.4c-0.1-0.1-0.2-0.2-0.3-0.3c-0.1-0.1-0.3-0.1-0.4,0c-0.2,0.2-0.1,0.5-0.1,0.7s-0.4,0.4-0.4,0.6
			s0.3,0.4,0.5,0.3c0.2-0.1,0.4-0.2,0.5-0.4c0.1-0.2,0.2-0.4,0.2-0.6s-0.1-0.4-0.3-0.5L86.4,160.4z"/>
      <path class="st5"
            d="M97.8,154.8c0.4-0.9,0.3-2-0.3-2.8c-1,0.1-2,0.6-2.4,1.5s-0.1,2.1,0.8,2.5s2.1-0.6,1.8-1.5L97.8,154.8z"/>
      <path class="st5" d="M109,154.8c0,0.1-0.2,0.2-0.3,0.1s-0.2-0.2-0.3-0.3c0-0.1,0-0.2,0-0.2c0-0.2,0.2-0.3,0.4-0.3
			c0.2,0,0.3,0.3,0.2,0.4c0,0.2-0.2,0.3-0.4,0.3L109,154.8z"/>
      <path class="st5" d="M103.5,154.9c-0.2,0.1-0.3,0.4-0.2,0.6c0,0.2,0,0.5-0.2,0.7c0,0-0.1,0.1-0.2,0c-0.2-0.1-0.1-0.3-0.1-0.5
			c0-0.1-0.1-0.3-0.1-0.4c-0.1-0.3,0-0.7,0.2-0.9c0.2,0,0.4,0,0.5,0.2c0.1,0.1,0.1,0.4,0,0.5L103.5,154.9z"/>
      <path class="st5" d="M96.2,157.9c-0.1,0-0.2-0.1-0.3-0.1c-0.1,0.1-0.2,0.3-0.1,0.4c0.1,0.1,0.3,0.2,0.4,0.1S96.4,157.9,96.2,157.9
			L96.2,157.9z"/>
      <path class="st5" d="M101.6,157.6c0.1,0.1,0,0.2,0,0.3c-0.1,0.1-0.2,0.1-0.3,0.1c-0.1,0-0.2,0-0.2-0.1c-0.1-0.1-0.2-0.3-0.2-0.5
			s0.2-0.3,0.4-0.3c0.1,0,0.2,0,0.2,0c0.1,0,0.1,0.2,0,0.2L101.6,157.6z"/>
      <path class="st5"
            d="M100.3,165.8c0.9-0.4,1.5-1.4,1.6-2.4c-0.8-0.5-1.9-0.8-2.8-0.4s-1.5,1.5-1,2.4s2,0.9,2.3,0L100.3,165.8z"/>
      <path class="st5" d="M107.5,163c-0.1-0.3-0.6-0.1-0.6,0.2c0,0.3,0.1,0.5,0.3,0.8c0.4-0.2,0.5-0.6,0.5-1L107.5,163z"/>
      <path class="st5" d="M106.7,152.5c-0.1,0-0.2-0.1-0.3-0.1c-0.1,0.1-0.2,0.3-0.1,0.4c0.1,0.1,0.3,0.2,0.4,0.1
			S106.8,152.6,106.7,152.5L106.7,152.5z"/>
      <path class="st5" d="M103.9,157c-0.8-0.7-1.8-1.2-2.8-1.4c-0.2,0-0.3-0.1-0.5,0c-0.3,0.1-0.5,0.4-0.7,0.6c-0.3,0.8,0,1.6,0.6,2.2
			c0.6,0.5,1.5,0.7,2.2,0.5c0.4-0.1,0.8-0.4,1-0.7s0.2-0.9-0.2-1.2c-0.1,0-0.2,0.2-0.1,0.3L103.9,157z"/>
      <path class="st5"
            d="M92,169.5c-0.2-1-1-1.8-2-2.1c-0.7,0.7-1.2,1.7-1,2.6s1.2,1.8,2.1,1.5s1.3-1.8,0.5-2.3L92,169.5z"/>
      <path class="st5" d="M86,151.8c-0.1-0.4-0.5-0.8-0.9-1c-0.1,0.2-0.2,0.4-0.2,0.6c0,0.2,0.1,0.4,0.3,0.5c0.3,0.1,0.5-0.1,0.8-0.2
			c0,0.1,0,0.1,0,0.2L86,151.8z"/>
      <path class="st5" d="M82.7,151.9c-0.1-0.1-0.2-0.2-0.3-0.2c-0.1,0-0.2,0-0.4,0.1c-0.3,0.1-0.6,0.2-1,0.3c0.5,0.2,1,0.5,1.5,0.7
			c0,0,0.1,0,0.1,0.1c0.1,0.1,0,0.3,0,0.5c0,0.2,0.3,0.3,0.5,0.3C84.9,153.8,83.1,152.4,82.7,151.9z"/>
      <path class="st5" d="M102.7,154.1c-0.1-0.1-0.3-0.2-0.4-0.2c-0.1,0.3-0.1,0.7,0.1,0.9s0.7,0.1,0.8-0.2c0-0.2,0-0.5,0.2-0.5
			L102.7,154.1z"/>
      <path class="st5" d="M88.6,156.8c0.1,0,0.2,0.1,0.3,0.2c-0.3,0.2-0.7,0-1-0.1c-0.2-0.1-0.4-0.2-0.4-0.4c0-0.1,0.1-0.2,0.2-0.4
			c0.1-0.2,0.1-0.6,0.3-0.7c0.1,0,0.3,0,0.4,0.2c0.1,0.1,0.1,0.3,0.1,0.5c0,0.3,0,0.7,0,1L88.6,156.8z"/>
      <path class="st5"
            d="M86.8,161.9c-0.1-0.3-0.6-0.1-0.6,0.2c0,0.3,0.1,0.5,0.3,0.8c0.4-0.2,0.5-0.6,0.5-1L86.8,161.9z"/>
      <path class="st6" d="M82.9,157.1c0,0.1-0.1,0.3-0.2,0.3s-0.3,0-0.4-0.1c-0.1,0-0.1-0.1-0.2-0.2c-0.1-0.2,0-0.4,0.2-0.5
			c0.2-0.1,0.4,0,0.5,0.2c0.1,0.2,0,0.4-0.2,0.5L82.9,157.1z"/>
      <path class="st5" d="M84.1,155.7c0.2-0.2,0.2-0.6-0.1-0.7c-0.1,0.1-0.2,0.2-0.3,0.4c0,0.1,0,0.3,0.1,0.4s0.3,0,0.3-0.2L84.1,155.7
			z"/>
      <path class="st5" d="M89.1,151.5c0-0.4-0.1-0.7-0.4-0.9c-0.2,0.2-0.3,0.5-0.5,0.7c-0.1,0.1-0.2,0.2-0.2,0.4c0,0.3,0.3,0.5,0.5,0.4
			C88.8,152,89,151.8,89.1,151.5L89.1,151.5z"/>
      <path class="st6" d="M83.3,161.1c0,0.2,0,0.4-0.2,0.5c-0.2,0.1-0.4,0.1-0.6,0c-0.1-0.1-0.2-0.2-0.1-0.3c0,0,0.1-0.1,0.1-0.1
			c0.2-0.1,0.5-0.2,0.7-0.3C83.3,161,83.3,161.1,83.3,161.1L83.3,161.1z"/>
      <path class="st6" d="M80.3,163.7c-0.2,0-0.4,0.3-0.5,0.5c-0.1,0.2-0.2,0.5-0.4,0.6c-0.1,0-0.1,0-0.2,0c-0.1-0.1,0-0.3,0-0.5
			c0-0.1,0-0.3,0-0.4c0-0.3,0.2-0.7,0.5-0.8c0.2,0,0.3,0.1,0.4,0.3c0,0.2,0,0.4-0.1,0.5L80.3,163.7z"/>
      <path class="st6" d="M96.7,148.1c-0.2,0-0.4,0.3-0.5,0.5c-0.1,0.2-0.2,0.5-0.4,0.6c-0.1,0-0.1,0-0.2,0c-0.1-0.1,0-0.3,0-0.5
			c0-0.1,0-0.3,0-0.4c0-0.3,0.2-0.7,0.5-0.8c0.2,0,0.3,0.1,0.4,0.3c0,0.2,0,0.4-0.1,0.5L96.7,148.1z"/>
      <path class="st6" d="M78.7,161.8c-0.1-0.1-0.1-0.1-0.2-0.2c-0.1,0.1-0.2,0.2-0.2,0.4c0,0.1,0.2,0.3,0.4,0.2
			C78.8,162.2,78.8,161.9,78.7,161.8L78.7,161.8z"/>
      <path class="st5" d="M85.5,154.1c0.1,0.2,0.3,0.2,0.5,0c0.1-0.1,0.2-0.3,0.3-0.5c0.1-0.1,0.3-0.2,0.5-0.2c0.1,0,0.2,0,0.3,0.1
			c0,0.1,0,0.1,0,0.2c0,0.4-0.1,0.8-0.3,1c-0.2,0.3-0.6,0.5-1,0.4c-0.2-0.1-0.5-0.3-0.5-0.5S85.3,154.2,85.5,154.1L85.5,154.1z"/>
      <path class="st5" d="M85.2,149.1c0-0.2-0.2-0.4-0.5-0.4c-0.2,0-0.4,0.2-0.5,0.4c0,0.1-0.1,0.2,0,0.3c0.1,0,0.1,0,0.2,0
			C84.7,149.3,85,149.2,85.2,149.1L85.2,149.1z"/>
      <path class="st5" d="M90.7,160.8c0,0.5-0.6,0.8-1.1,0.6c0.1-0.4,0.2-0.7,0.5-1c0.3-0.2,0.8-0.3,1,0c0,0.2-0.1,0.4-0.1,0.6
			L90.7,160.8z"/>
      <path class="st6" d="M81.6,154.9c-0.1-0.1-0.2-0.1-0.2-0.2c-0.1,0.1-0.2,0.2-0.2,0.4c0,0.1,0.2,0.3,0.3,0.2c0,0,0.1-0.1,0.1-0.1
			c0.1-0.2,0.1-0.3,0.2-0.5L81.6,154.9z"/>
      <path class="st5" d="M107.7,159.2c-0.1-0.2-0.2-0.4-0.4-0.6s-0.5-0.2-0.7-0.1c-0.1,0.1-0.2,0.2-0.2,0.3c-0.1,0.4,0.1,0.8,0.4,0.9
			C107.2,159.7,107.6,159.5,107.7,159.2L107.7,159.2z"/>
      <path class="st5"
            d="M94.9,166.1c-0.1-0.1-0.3-0.2-0.4-0.2c-0.1,0.1-0.1,0.2-0.2,0.3c0.2,0.2,0.5,0.2,0.7,0L94.9,166.1z"/>
      <path class="st5" d="M119.5,164.6c0,0.1-0.1,0.3-0.2,0.3s-0.3,0-0.4-0.1c-0.1,0-0.1-0.1-0.2-0.2c-0.1-0.2,0-0.4,0.2-0.5
			c0.2-0.1,0.4,0,0.5,0.2c0.1,0.2,0,0.4-0.2,0.5L119.5,164.6z"/>
      <path class="st5"
            d="M93.2,162.4c-0.1-0.1-0.3-0.2-0.4-0.2c-0.1,0.1-0.1,0.2-0.2,0.3c0.2,0.2,0.5,0.2,0.7,0L93.2,162.4z"/>
      <path class="st5" d="M99.3,150.1c0-0.2-0.3-0.3-0.4-0.2c-0.2,0.1-0.3,0.2-0.5,0.3c-0.2,0.1-0.4,0.1-0.6,0.1
			c-0.1,0-0.2-0.1-0.2-0.2c0-0.1,0-0.1,0-0.2c0.1-0.3,0.3-0.7,0.6-0.9c0.3-0.2,0.7-0.3,1-0.1c0.2,0.1,0.4,0.4,0.3,0.7
			S99.5,150,99.3,150.1L99.3,150.1z"/>
      <path class="st5" d="M103.1,159.3c0,0.1,0.1,0.3,0.2,0.4s0.3,0.1,0.4,0.1c0.2-0.1,0.2-0.4,0.3-0.6c0.1-0.2,0.4-0.2,0.5-0.5
			s-0.2-0.4-0.4-0.5s-0.4,0.1-0.6,0.3c-0.2,0.1-0.3,0.3-0.4,0.5s0,0.4,0.1,0.5L103.1,159.3z"/>
      <path class="st5" d="M93.6,154.2c0.8,0.3,1.6,0.5,2.5,0.4c0.1,0,0.3,0,0.4-0.1c0.2-0.1,0.3-0.4,0.4-0.7c0-0.6-0.4-1.3-1-1.5
			c-0.6-0.3-1.3-0.2-1.9,0.2c-0.3,0.2-0.6,0.5-0.6,0.8c-0.1,0.4,0.1,0.8,0.4,0.9c0.1-0.1,0.1-0.2,0-0.3L93.6,154.2z"/>
      <path class="st5" d="M97.6,149.5c0-0.1,0.1-0.3,0-0.4c0-0.1-0.1-0.2-0.2-0.3c-0.3-0.2-0.5-0.4-0.8-0.7c0,0.6,0.1,1.1,0.1,1.7
			c0,0,0,0.1,0,0.1c0,0.1-0.3,0.1-0.4,0.2c-0.2,0.1-0.1,0.4,0,0.6C97,152.4,97.4,150.2,97.6,149.5z"/>
      <path class="st5" d="M93.6,154c-0.1-0.1-0.1-0.1-0.2-0.2c-0.1,0-0.3,0.2-0.2,0.4c0,0.2,0.2,0.3,0.3,0.2S93.7,154.1,93.6,154
			L93.6,154z"/>
      <path class="st5" d="M94.9,149.6c0.2-0.1,0.2-0.4,0.1-0.6c-0.1-0.2-0.4-0.3-0.6-0.3c-0.1,0-0.2,0.1-0.2,0.2c0,0.1,0,0.1,0.1,0.2
			C94.5,149.3,94.7,149.5,94.9,149.6L94.9,149.6z"/>
      <path class="st5" d="M93.4,152.3c0.3-0.3,0.5-0.8,0.4-1.3c-0.2,0-0.4,0-0.6,0.1s-0.3,0.3-0.3,0.5c0,0.3,0.3,0.4,0.6,0.5
			c-0.1,0-0.1,0.1-0.2,0.1L93.4,152.3z"/>
      <path class="st5" d="M91.5,153.3c0,0.1,0,0.3,0,0.4c-0.3-0.2-0.4-0.6-0.4-1c0-0.2,0-0.4,0.2-0.5c0.1-0.1,0.3,0,0.4,0
			c0.3,0,0.6-0.3,0.8-0.1c0.1,0.1,0.1,0.3,0,0.4s-0.2,0.2-0.4,0.3c-0.3,0.2-0.6,0.3-0.9,0.5L91.5,153.3z"/>
      <path class="st5" d="M96.3,151.1c0.3-0.2,0.5-0.5,0.6-0.8c-0.3,0-0.6,0-0.9-0.1c-0.1,0-0.3,0-0.4,0c-0.2,0.1-0.3,0.5-0.1,0.7
			C95.7,151.1,96,151.2,96.3,151.1L96.3,151.1z"/>
      <path class="st5" d="M92.3,149.3c-0.1,0.1,0,0.4,0.2,0.4s0.4,0,0.6,0.1s0.4,0.2,0.5,0.3c0,0.1,0.1,0.2,0,0.3
			c0,0.1-0.1,0.1-0.2,0.1c-0.3,0.1-0.7,0.3-1.1,0.2c-0.4,0-0.7-0.3-0.8-0.6c-0.1-0.2,0-0.5,0.2-0.7S92.1,149.2,92.3,149.3
			L92.3,149.3z"/>
      <path class="st5" d="M98.2,159.8c0.1-0.2,0.3-0.4,0.3-0.7c0-0.2,0-0.5-0.3-0.6c-0.1-0.1-0.2-0.1-0.4,0c-0.4,0.1-0.6,0.5-0.5,0.8
			C97.4,159.6,97.9,159.9,98.2,159.8L98.2,159.8z"/>
      <path class="st5" d="M101.8,155.6c0.3-0.3,0.5-0.8,0.4-1.3c-0.2,0-0.4,0-0.6,0.1s-0.3,0.3-0.3,0.5c0,0.3,0.3,0.4,0.6,0.5
			c-0.1,0-0.1,0.1-0.2,0.1L101.8,155.6z"/>
      <path class="st5" d="M90.7,153.4c-0.2,0-0.4,0.3-0.5,0.5c-0.1,0.2-0.2,0.5-0.4,0.6c-0.1,0-0.1,0-0.2,0c-0.1-0.1,0-0.3,0.1-0.5
			c0-0.1,0-0.3,0-0.4c0-0.3,0.3-0.6,0.6-0.7c0.2,0,0.3,0.2,0.4,0.4s0,0.4-0.2,0.5L90.7,153.4z"/>
      <path class="st5" d="M105.5,165.6c-0.1,0-0.2,0-0.3,0c-0.1,0.1-0.1,0.3,0,0.4s0.3,0.1,0.4,0C105.8,165.9,105.7,165.6,105.5,165.6
			L105.5,165.6z"/>
      <path class="st5" d="M96.9,153.4c0-0.1,0-0.2,0-0.3c-0.1,0-0.3-0.1-0.5,0s-0.2,0.3,0,0.4c0,0,0.1,0,0.2,0c0.2,0,0.4,0,0.5-0.1
			L96.9,153.4z"/>
	</g>
</g>
  <radialGradient cx="94.75" cy="131.9034" gradientTransform="matrix(1 0 0 -0.2225 0 238.9485)"
                  gradientUnits="userSpaceOnUse"
                  id="SVGID_1_" r="40.7945">
	<stop offset="0" style="stop-color:#B59CCA"/>
    <stop offset="0.3883" style="stop-color:#D6BEDD"/>
    <stop offset="1" style="stop-color:#FFFFFF"/>
</radialGradient>
  <ellipse class="st7" cx="94.8" cy="209.6" rx="40.8" ry="9.1"/>
  <linearGradient gradientTransform="matrix(1 0 0 -1 0 216.11)" gradientUnits="userSpaceOnUse"
                  id="SVGID_00000080917277064639940000000012786142545493908916_" x1="71.5395" x2="75.9192" y1="20.921"
                  y2="55.7916">
	<stop offset="0" style="stop-color:#CABFE0"/>
    <stop offset="1" style="stop-color:#E7DBED"/>
</linearGradient>
  <path d="M86.7,174.3c-1.2,6.9-6.5,23-11.2,21.3
	c-1-0.4-2.1-1.7-3.2-3.6c-3.2-5.8-6.4-17.2-8-24.9c-0.9-4.2-1.2-7.3-0.9-7.8c2.1-3.1,22.1,10.4,23.4,11.9
	C87.1,171.6,87,172.7,86.7,174.3z" style="fill:url(#SVGID_00000080917277064639940000000012786142545493908916_);"/>
  <linearGradient gradientTransform="matrix(1 0 0 -1 0 216.11)" gradientUnits="userSpaceOnUse"
                  id="SVGID_00000063600813654867232210000003130048702701592969_" x1="102.8907" x2="108.5413"
                  y1="15.9937" y2="60.9852">
	<stop offset="0" style="stop-color:#CABFE0"/>
    <stop offset="1" style="stop-color:#E7DBED"/>
</linearGradient>
  <path d="M118.5,165c-0.1,0.6-0.2,1.3-0.3,2
	c-1.4,10.5-4.3,26-7.5,31.7c-0.8,1.4-1.5,2.1-2.3,2.1c-0.2,0-0.4,0-0.6-0.1c-0.7-0.2-1.5-0.8-2.2-1.6v0
	c-4.8-5.4-10.2-21.6-10.4-26.5c0-0.6,0-1,0.2-1.2c2.7-3.7,22.4-16.3,23.5-14.8C119.3,156.9,119,160.3,118.5,165z"
        style="fill:url(#SVGID_00000063600813654867232210000003130048702701592969_);"/>
  <linearGradient gradientTransform="matrix(1 0 0 -1 0 216.11)" gradientUnits="userSpaceOnUse"
                  id="SVGID_00000137825371388833992740000003541264286520436414_" x1="75.1363" x2="75.1363" y1="43.5525"
                  y2="57.2942">
	<stop offset="0" style="stop-color:#B59CCA"/>
    <stop offset="1" style="stop-color:#938AC2"/>
</linearGradient>
  <path d="M63.5,159.4c-2.2,2.9,15.9,16,23.5,12.6
	C87,172,66.4,155.5,63.5,159.4z" style="fill:url(#SVGID_00000137825371388833992740000003541264286520436414_);"/>
  <linearGradient gradientTransform="matrix(1 0 0 -1 0 216.11)" gradientUnits="userSpaceOnUse"
                  id="SVGID_00000070811365955206935980000007986090963690281614_" x1="107.1087" x2="107.1087"
                  y1="43.2308" y2="59.58">
	<stop offset="0" style="stop-color:#B59CCA"/>
    <stop offset="1" style="stop-color:#938AC2"/>
</linearGradient>
  <path d="M95.3,172.6c-0.6,1.5,20.3-1.9,23.7-16
	C119,156.5,100.9,158.6,95.3,172.6z" style="fill:url(#SVGID_00000070811365955206935980000007986090963690281614_);"/>
  <linearGradient gradientTransform="matrix(1 0 0 -1 0 216.11)" gradientUnits="userSpaceOnUse"
                  id="SVGID_00000172409072971968179520000010022937492473371049_" x1="75.1818" x2="75.1818" y1="20.48"
                  y2="57.1852">
	<stop offset="0" style="stop-color:#926AAB"/>
    <stop offset="1" style="stop-color:#CDEAFC"/>
</linearGradient>
  <path
    d="
	M71.4,171.6c-1,1.2,0.2,17.5,4.1,24c-1-0.4-2.1-1.7-3.2-3.6c-0.6-2.8-1.6-7.1-2.5-11.3c-1.1-5.4-4-11-5.5-13.6
	c-0.9-4.2-1.2-7.3-0.9-7.8c2.1-3.1,22.1,10.4,23.4,11.9c0.2,0.3,0.2,1.4-0.1,3C86.7,174.3,72.4,170.3,71.4,171.6z"
    style="opacity:0.3;fill:url(#SVGID_00000172409072971968179520000010022937492473371049_);enable-background:new    ;"/>
  <path class="st5" d="M106.7,177.5c-0.9,0.3-1,7.1,0.4,7.4C108.5,185.3,108.7,176.9,106.7,177.5z"/>
  <linearGradient gradientTransform="matrix(1 0 0 -1 0 216.11)" gradientUnits="userSpaceOnUse"
                  id="SVGID_00000067945892689533713220000000048123430433245351_" x1="107.1767" x2="107.1767" y1="17.06"
                  y2="59.7133">
	<stop offset="0" style="stop-color:#926AAB"/>
    <stop offset="1" style="stop-color:#CDEAFC"/>
</linearGradient>
  <path
    d="
	M118.5,165c0,0-11.4,3.4-14.1,8.8c-2.6,5.4-1.6,18.3,1.2,25.3c-4.8-5.4-10.2-21.6-10.4-26.5c0-0.6,0-1,0.2-1.2
	c2.7-3.7,22.4-16.3,23.5-14.8C119.3,156.9,119,160.3,118.5,165z"
    style="opacity:0.3;fill:url(#SVGID_00000067945892689533713220000000048123430433245351_);enable-background:new    ;"/>
  <linearGradient gradientTransform="matrix(1 0 0 -1 0 216.11)" gradientUnits="userSpaceOnUse"
                  id="SVGID_00000158737606689525394980000013482827747827519639_" x1="50.7458" x2="58.2957" y1="52.6888"
                  y2="112.8019">
	<stop offset="0" style="stop-color:#CABFE0"/>
    <stop offset="1" style="stop-color:#E7DBED"/>
</linearGradient>
  <path d="M69.1,111.8c0,6-0.9,14.7-3.6,21.8
	C61,145.2,54.2,159.9,54,160.3l0,0c-4.1,2.5-9.1,2.4-12.3,1.9c-1.9-0.3-3.2-0.7-3.2-0.7s1.4-13.4,8.8-28.5
	c3.7-7.6,8.4-14.7,12.4-19.9c0,0,0,0,0.1-0.1c0-0.1,0.1-0.1,0.1-0.2c0,0,0.1-0.1,0.1-0.1c0,0,0.1-0.1,0.1-0.1c0,0,0.1-0.1,0.1-0.1
	c0,0,0,0,0,0c0,0,0,0,0,0c4.1-5.2,7.5-8.4,8.1-8C68.8,104.8,69.1,107.7,69.1,111.8z"
        style="fill:url(#SVGID_00000158737606689525394980000013482827747827519639_);"/>
  <linearGradient gradientTransform="matrix(1 0 0 -1 0 216.11)" gradientUnits="userSpaceOnUse"
                  id="SVGID_00000140695962844940316520000017511135124560317370_" x1="46.3245" x2="46.3245" y1="53.2661"
                  y2="62.8233">
	<stop offset="0" style="stop-color:#B59CCA"/>
    <stop offset="1" style="stop-color:#938AC2"/>
</linearGradient>
  <path d="M38.6,161.1c0,0,5.4-8.8,10.9-7.7
	c5.5,1.1,4.5,7,4.5,7S46.9,165.4,38.6,161.1z"
        style="fill:url(#SVGID_00000140695962844940316520000017511135124560317370_);"/>
  <linearGradient gradientTransform="matrix(1 0 0 -1 0 216.11)" gradientUnits="userSpaceOnUse"
                  id="SVGID_00000134971225302084056580000001836650487802380933_" x1="53.83" x2="53.83" y1="53.83"
                  y2="104.35">
	<stop offset="0" style="stop-color:#926AAB"/>
    <stop offset="1" style="stop-color:#CDEAFC"/>
</linearGradient>
  <path
    d="
	M69.1,111.8c0,6-0.9,14.7-3.6,21.8C61,145.2,54.2,159.9,54,160.3l0,0l-12.3,1.9c-1.9-0.3-3.2-0.7-3.2-0.7s1.4-13.4,8.8-28.5
	c3.7-7.6,8.4-14.7,12.4-19.9c-2.3,3.1-12,16.4-14.6,27.7c-3,12.9,9,7.9,13.9,0c4.9-7.9,10-29.1,10-29.1L69.1,111.8L69.1,111.8z"
    style="opacity:0.3;fill:url(#SVGID_00000134971225302084056580000001836650487802380933_);enable-background:new    ;"/>
  <path class="st5" d="M55.8,132.3c-1-0.4,4.1-11.8,5.6-11.9C62.9,120.3,56.6,132.6,55.8,132.3z"/>
  <path class="st5" d="M55.2,133.5c-0.8-0.4-1.5,1.7-0.8,2S56.1,134,55.2,133.5z"/>
  <linearGradient gradientTransform="matrix(1 0 0 -1 0 216.11)" gradientUnits="userSpaceOnUse"
                  id="SVGID_00000016780901523762465670000016907553927168973448_" x1="44.0347" x2="48.1476" y1="27.2566"
                  y2="60.0041">
	<stop offset="0" style="stop-color:#CABFE0"/>
    <stop offset="1" style="stop-color:#E7DBED"/>
</linearGradient>
  <path d="M47.7,156c-2.9-0.5-7,2.2-8.3,4.6
	c-1.3,2.4-2,16.2,1.3,27.6c0,0,4.6,1.2,8.1,0c3.5-1.2,5.9-11.3,6.1-18.9C55,161.8,52.4,156.8,47.7,156z"
        style="fill:url(#SVGID_00000016780901523762465670000016907553927168973448_);"/>
  <linearGradient gradientTransform="matrix(1 0 0 -1 0 216.11)" gradientUnits="userSpaceOnUse"
                  id="SVGID_00000142144122312679441850000004825481300916662711_" x1="50.4804" x2="50.4804" y1="27.42"
                  y2="56.72">
	<stop offset="0" style="stop-color:#B59CCA"/>
    <stop offset="1" style="stop-color:#938AC2"/>
</linearGradient>
  <path d="M47.2,188.7c0,0-4.2-24.3,5.4-29.3
	c0,0,2.8,4.8,1.8,14.2C53.3,183,51.7,187.8,47.2,188.7z"
        style="fill:url(#SVGID_00000142144122312679441850000004825481300916662711_);"/>
  <linearGradient gradientTransform="matrix(1 0 0 -1 0 216.11)" gradientUnits="userSpaceOnUse"
                  id="SVGID_00000012430531706666130400000017638407338104457142_" x1="50.113" x2="50.113" y1="36.4854"
                  y2="47.81">
	<stop offset="0" style="stop-color:#8FA3D4"/>
    <stop offset="1" style="stop-color:#6E5CA4"/>
</linearGradient>
  <path
    d="
	M46.6,175.2c0,0,2.5,3.6,4.1,4.2s3,0,3,0l-6.2-11C47.5,168.3,46.4,172.7,46.6,175.2z"
    style="opacity:0.5;fill:url(#SVGID_00000012430531706666130400000017638407338104457142_);enable-background:new    ;"/>
  <linearGradient gradientTransform="matrix(1 0 0 -1 0 216.11)" gradientUnits="userSpaceOnUse"
                  id="SVGID_00000151535351673002909760000010310910743412225173_" x1="50.8672" x2="53.2698" y1="37.0261"
                  y2="56.1548">
	<stop offset="0" style="stop-color:#CABFE0"/>
    <stop offset="1" style="stop-color:#E7DBED"/>
</linearGradient>
  <path d="M47.5,168.3c0,0,1.4-6.7,5.4-8.4
	c0,0,3.8,3.7,2.8,18.2c0,0-2.1,2.8-5.1,0C50.6,178.1,48.2,173.2,47.5,168.3z"
        style="fill:url(#SVGID_00000151535351673002909760000010310910743412225173_);"/>
  <path class="st5" d="M49.8,165.9c-1.4,0,0.7,6.1,1.4,6C52,171.7,51,165.9,49.8,165.9z"/>
  <linearGradient gradientTransform="matrix(-1 0 0 -1 -624.5355 216.11)" gradientUnits="userSpaceOnUse"
                  id="SVGID_00000144329099242233513800000008146367358702750133_" x1="-680.1829" x2="-680.1829"
                  y1="161.66"
                  y2="196.34">
	<stop offset="0" style="stop-color:#B6ABD4"/>
    <stop offset="1" style="stop-color:#E0D0E8"/>
</linearGradient>
  <path d="M65.5,26.1c0,0-6.2-5.4-13.9-6.3
	c0,0-2.3,1.1-5.1,9.6s2.3,25.1,2.3,25.1L65.5,26.1z"
        style="fill:url(#SVGID_00000144329099242233513800000008146367358702750133_);"/>
  <linearGradient gradientTransform="matrix(1 0 0 -1 0 216.11)" gradientUnits="userSpaceOnUse"
                  id="SVGID_00000055695968652404653770000014531826005571173298_" x1="53.1636" x2="53.1636" y1="174.76"
                  y2="196.34">
	<stop offset="0" style="stop-color:#B59CCA"/>
    <stop offset="1" style="stop-color:#938AC2"/>
</linearGradient>
  <path d="M48.6,24c0,0,1.2-2.9,3-4.2
	c0,0,6.3,5.8,6,19.7l-1.8,1.9L48.6,24z" style="fill:url(#SVGID_00000055695968652404653770000014531826005571173298_);"/>
  <linearGradient gradientTransform="matrix(1 0 0 -1 0 216.11)" gradientUnits="userSpaceOnUse"
                  id="SVGID_00000090995994899986955270000001036101271648308897_" x1="127.1726" x2="127.1726" y1="161.66"
                  y2="196.34">
	<stop offset="0" style="stop-color:#B6ABD4"/>
    <stop offset="1" style="stop-color:#E0D0E8"/>
</linearGradient>
  <path d="M117.3,26.1c0,0,6.2-5.4,13.9-6.3
	c0,0,2.3,1.1,5,9.6S134,54.4,134,54.4L117.3,26.1z"
        style="fill:url(#SVGID_00000090995994899986955270000001036101271648308897_);"/>
  <linearGradient gradientTransform="matrix(1 0 0 -1 0 216.11)" gradientUnits="userSpaceOnUse"
                  id="SVGID_00000036935449663824438780000014558201477145427877_" x1="129.695" x2="129.695" y1="177.49"
                  y2="196.3427">
	<stop offset="0" style="stop-color:#B59CCA"/>
    <stop offset="1" style="stop-color:#938AC2"/>
</linearGradient>
  <path d="M131.2,19.8c0,0-6.2,6.6-6.2,17.3l2.4,1.5
	l7-14.4C134.4,24.2,132.1,19.6,131.2,19.8z"
        style="fill:url(#SVGID_00000036935449663824438780000014558201477145427877_);"/>
  <linearGradient gradientTransform="matrix(1 0 0 -1 0 216.11)" gradientUnits="userSpaceOnUse"
                  id="SVGID_00000151503898851472671720000012737972922903364786_" x1="134.3777" x2="134.3777" y1="160.01"
                  y2="194.08">
	<stop offset="0" style="stop-color:#7AC5B1"/>
    <stop offset="1" style="stop-color:#61C5E6"/>
</linearGradient>
  <path d="M127.2,37.9c0,0-1.6-9.1,4.4-15.9
	c0,0,6.8,3.2,9.6,15.1c2.8,11.9-4.5,19-4.5,19L127.2,37.9z"
        style="fill:url(#SVGID_00000151503898851472671720000012737972922903364786_);"/>
  <linearGradient gradientTransform="matrix(-1 0 0 -1 -624.5355 216.11)" gradientUnits="userSpaceOnUse"
                  id="SVGID_00000108992799694618923760000010805843005163660174_" x1="-672.9778" x2="-672.9778"
                  y1="160.01"
                  y2="194.08">
	<stop offset="0" style="stop-color:#7AC5B1"/>
    <stop offset="1" style="stop-color:#61C5E6"/>
</linearGradient>
  <path d="M55.6,37.9c0,0,1.6-9.1-4.4-15.9
	c0,0-6.8,3.2-9.6,15.1c-2.8,11.9,4.5,19,4.5,19L55.6,37.9z"
        style="fill:url(#SVGID_00000108992799694618923760000010805843005163660174_);"/>
  <linearGradient gradientTransform="matrix(1 0 0 -1 0 216.11)" gradientUnits="userSpaceOnUse"
                  id="SVGID_00000013882482603245153350000016364407754035717261_" x1="87.6706" x2="98.6945" y1="112.4868"
                  y2="200.2599">
	<stop offset="0" style="stop-color:#CABFE0"/>
    <stop offset="1" style="stop-color:#E7DBED"/>
</linearGradient>
  <path d="M135.5,88.4c-14,19.6-79.6,18.1-88.1,2.3
	c-5.6-10.3-5-25.9,0.4-40.2c7-18.8,22.3-35.4,42.5-35.4c23.8,0,42.1,23.7,47.6,45.4C140.7,71.4,140.2,81.8,135.5,88.4z"
        style="fill:url(#SVGID_00000013882482603245153350000016364407754035717261_);"/>
  <path class="st28" d="M52.3,70.2c3.1,13.3,60.8,14.8,74.9,2.7S121,18,89.8,19.8C61.2,21.5,47.2,48.4,52.3,70.2z"/>
  <linearGradient gradientTransform="matrix(1 0 0 -1 0 216.11)" gradientUnits="userSpaceOnUse"
                  id="SVGID_00000156553403739834558860000012462593340811382951_" x1="91.2631" x2="91.2631" y1="136.5478"
                  y2="197.9693">
	<stop offset="0" style="stop-color:#1F65AF"/>
    <stop offset="1" style="stop-color:#292F6B"/>
</linearGradient>
  <path d="M52,68.6c3.1,13.3,60.8,14.8,74.9,2.7
	c14.2-12.1-6.2-55-37.5-53.1C60.9,19.9,46.9,46.8,52,68.6z"
        style="fill:url(#SVGID_00000156553403739834558860000012462593340811382951_);"/>
  <linearGradient gradientTransform="matrix(1 0 0 -1 0 216.11)" gradientUnits="userSpaceOnUse"
                  id="SVGID_00000163054465887630648490000014016522178282326657_" x1="91.5704" x2="91.5704" y1="113.2981"
                  y2="165.62">
	<stop offset="0" style="stop-color:#926AAB"/>
    <stop offset="1" style="stop-color:#CDEAFC"/>
</linearGradient>
  <path
    d="
	M135.5,88.4c-14,19.6-79.6,18.1-88.1,2.3c-5.6-10.3-5-25.9,0.4-40.2c0,0,0,0,0,0c-0.2,0.8-5.7,20.9-0.1,29.7
	c5.7,9,28.4,7.8,52.8,6.7c24.4-1,32.4-4.6,36.5-11.5c3.2-5.4,0-17.3-1.5-22.2l2.4,7.1C140.7,71.4,140.2,81.8,135.5,88.4z"
    style="opacity:0.3;fill:url(#SVGID_00000163054465887630648490000014016522178282326657_);enable-background:new    ;"/>
  <linearGradient gradientTransform="matrix(1 0 0 -1 0 216.11)" gradientUnits="userSpaceOnUse"
                  id="SVGID_00000006671676199587255520000012971039376367801224_" x1="56.3047" x2="124.4913"
                  y1="120.0977" y2="120.0977">
	<stop offset="0" style="stop-color:#7975B5"/>
    <stop offset="1" style="stop-color:#938AC2"/>
</linearGradient>
  <path d="M90.4,102.8c-13.6,0-23.5-1.5-29-3.8h0
	c-3.6-1.4-5.4-3.2-5.1-4.9c0.2-1.1,2.8-2,7-2.8c12.4-2.2,38-2.9,51.8-0.8c1.2,0.2,2.3,0.4,3.3,0.6c0.2,0,0.4,0.1,0.6,0.1
	c0,0,0.1,0,0.1,0c2.4,0.6,4.1,1.3,4.8,2.2c0.2,0.2,0.3,0.5,0.4,0.7C125.7,98.5,102.7,102.8,90.4,102.8z"
        style="fill:url(#SVGID_00000006671676199587255520000012971039376367801224_);"/>
  <linearGradient gradientTransform="matrix(1 0 0 -1 0 216.11)" gradientUnits="userSpaceOnUse"
                  id="SVGID_00000031918709341273056410000010360300631919873456_" x1="90.3014" x2="90.3014" y1="117.06"
                  y2="126.8853">
	<stop offset="0" style="stop-color:#8FA3D4"/>
    <stop offset="1" style="stop-color:#6E5CA4"/>
</linearGradient>
  <path
    d="
	M124.3,93c0,0.1-0.1,0.3-0.2,0.4c-1.3,1.9-6.8,4.3-6.8,4.3S96.5,89.2,79.6,93c-16.9,3.8-18.2,6-18.2,6h0c-3.6-1.4-5.4-3.2-5.1-4.9
	c0.2-1.1,2.8-2,7-2.8c12.4-2.2,38-2.9,51.8-0.8c1.4,0.3,2.8,0.5,3.9,0.8c0,0,0.1,0,0.1,0C122.5,92,124.4,92.6,124.3,93z"
    style="opacity:0.5;fill:url(#SVGID_00000031918709341273056410000010360300631919873456_);enable-background:new    ;"/>
  <linearGradient gradientTransform="matrix(1 0 0 -1 0 216.11)" gradientUnits="userSpaceOnUse"
                  id="SVGID_00000065043260427887290530000005886197342324807089_" x1="90.1227" x2="91.4032" y1="118.4428"
                  y2="128.6376">
	<stop offset="0" style="stop-color:#4F4797"/>
    <stop offset="1" style="stop-color:#6D4C98"/>
</linearGradient>
  <path d="M118.5,91.1c-3.2,3.1-18.7,5.8-27.5,5.7
	c-15.8,0-25.4-2.5-27.6-5.5C76.8,88.9,105.9,88.3,118.5,91.1z"
        style="fill:url(#SVGID_00000065043260427887290530000005886197342324807089_);"/>
  <linearGradient gradientTransform="matrix(1 0 0 -1 0 216.11)" gradientUnits="userSpaceOnUse"
                  id="SVGID_00000176749242995067936040000006222536700448771252_" x1="87.093" x2="96.6707" y1="44.6507"
                  y2="120.9095">
	<stop offset="0" style="stop-color:#CABFE0"/>
    <stop offset="1" style="stop-color:#E7DBED"/>
</linearGradient>
  <path d="M117.5,152.8c-1.9,11.2-12,18.7-26.4,18.7
	c-12.6,0-23.2-4.7-26-15c-2.8-10.3-1.7-29.4,2-41.2c0.6-1.8,1.2-3.5,2-5.1l0,0c0.7-1.5,1.5-2.9,2.4-4.2c0,0,0,0,0,0
	c4.6-6.9,11.3-11.4,18.9-11.4c7.9,0,13.9,3.2,18,8c1.9,2.2,3.4,4.8,4.5,7.5c1.2,3.1,2.3,6.5,3.1,9.9c0,0,0,0.1,0,0.1
	C118.6,131,119.2,142.8,117.5,152.8z" style="fill:url(#SVGID_00000176749242995067936040000006222536700448771252_);"/>
  <linearGradient gradientTransform="matrix(1 0 0 -1 0 216.11)" gradientUnits="userSpaceOnUse"
                  id="SVGID_00000174571465363236751700000009152503450040814763_" x1="107.64" x2="116.71" y1="103.58"
                  y2="103.58">
	<stop offset="0" style="stop-color:#7975B5"/>
    <stop offset="1" style="stop-color:#938AC2"/>
</linearGradient>
  <path d="M107.6,101.8c0,0,1.2,13.4,9.1,21.5
	C116.7,123.3,114.5,110.8,107.6,101.8z" style="fill:url(#SVGID_00000174571465363236751700000009152503450040814763_);"/>
  <linearGradient gradientTransform="matrix(1 0 0 -1 0 216.11)" gradientUnits="userSpaceOnUse"
                  id="SVGID_00000174591950866419506870000004051240123189286029_" x1="126.9147" x2="132.8773"
                  y1="96.8204" y2="144.2952">
	<stop offset="0" style="stop-color:#CABFE0"/>
    <stop offset="1" style="stop-color:#E7DBED"/>
</linearGradient>
  <path d="M152,85.5c-12.3,24.4-34,32.7-34,32.7
	c-6-3.9-11.1-16.5-9.1-18.9l0,0c0.1-0.1,0.2-0.2,0.4-0.3c26.5-12.6,34.4-25.8,34.4-25.8c3.6,0.3,5.6,2.3,6.8,4.7
	C152.1,81.4,152,85.5,152,85.5z" style="fill:url(#SVGID_00000174591950866419506870000004051240123189286029_);"/>
  <linearGradient gradientTransform="matrix(1 0 0 -1 0 216.11)" gradientUnits="userSpaceOnUse"
                  id="SVGID_00000174563825954262885700000002466473383875621051_" x1="55.4887" x2="55.4887" y1="125.43"
                  y2="139.2195">
	<stop offset="0" style="stop-color:#8FA3D4"/>
    <stop offset="1" style="stop-color:#6E5CA4"/>
</linearGradient>
  <path
    d="
	M47.4,90.7c0,0,2.8-3.2,8.2-5.8c5.4-2.6,10.4-4.6,11.2-6.7s-14.9-0.9-14.9-0.9l-7.8,3.4C44.1,80.6,45.4,86.9,47.4,90.7z"
    style="opacity:0.5;fill:url(#SVGID_00000174563825954262885700000002466473383875621051_);enable-background:new    ;"/>
  <linearGradient gradientTransform="matrix(1 0 0 -1 0 216.11)" gradientUnits="userSpaceOnUse"
                  id="SVGID_00000145764917469919958650000009757881979624629428_" x1="147.0628" x2="147.0628"
                  y1="126.0353" y2="143.1358">
	<stop offset="0" style="stop-color:#B59CCA"/>
    <stop offset="1" style="stop-color:#938AC2"/>
</linearGradient>
  <path d="M143.6,73.2c-2.2,0.6-2,15.2,0.8,16.7
	s7.5-4.4,7.5-4.4S151.5,71.1,143.6,73.2z"
        style="fill:url(#SVGID_00000145764917469919958650000009757881979624629428_);"/>
  <linearGradient gradientTransform="matrix(1 0 0 -1 0 216.11)" gradientUnits="userSpaceOnUse"
                  id="SVGID_00000130619504699552920140000011766598933435215277_" x1="110.0907" x2="110.0907"
                  y1="167.4027" y2="182.1329">
	<stop offset="0" style="stop-color:#7AC5B1"/>
    <stop offset="1" style="stop-color:#61C5E6"/>
</linearGradient>
  <path d="M101.9,47c2.1,3.7,15.9,0.4,16.7-1.8
	c1-2.9-2.8-12.1-10.1-11.2S100.9,45.3,101.9,47z"
        style="fill:url(#SVGID_00000130619504699552920140000011766598933435215277_);"/>
  <linearGradient gradientTransform="matrix(-1 0 0 -1 -522.0395 216.11)" gradientUnits="userSpaceOnUse"
                  id="SVGID_00000065051805402373186920000016221098236216590246_" x1="-594.1588" x2="-594.1588"
                  y1="167.4027"
                  y2="182.1329">
	<stop offset="0" style="stop-color:#7AC5B1"/>
    <stop offset="1" style="stop-color:#61C5E6"/>
</linearGradient>
  <path d="M80.3,47c-2.1,3.7-15.9,0.4-16.7-1.8
	c-1-2.9,2.8-12.1,10.1-11.2C81,34.9,81.3,45.3,80.3,47z"
        style="fill:url(#SVGID_00000065051805402373186920000016221098236216590246_);"/>
  <path class="st41"
        d="M76.5,53.8c0,0,3.9,4.1,15.1,4.1c11.1,0,16.9-4.7,16.9-4.7s-4.9,6.7-16.9,6.7C79.6,59.9,76.5,53.8,76.5,53.8z"
  />
  <linearGradient gradientTransform="matrix(1 0 0 -1 0 216.11)" gradientUnits="userSpaceOnUse"
                  id="SVGID_00000018236697488327089070000004226444066039154093_" x1="36.7761" x2="41.8286" y1="134.4411"
                  y2="174.6697">
	<stop offset="0" style="stop-color:#B59CCA"/>
    <stop offset="1" style="stop-color:#938AC2"/>
</linearGradient>
  <path d="M41,41.3c0,0,4.1,2.6,1.4,8.6
	c0,0-18.9,10.3-17.8,21.5c0.9,9.4,27,4.8,27,4.8l0.9,3.1c0,0-22.2,4.3-29.8-0.9c0,0-2.6-6.2,3.9-17.3C33.1,50.1,41,41.3,41,41.3z"
        style="fill:url(#SVGID_00000018236697488327089070000004226444066039154093_);"/>
  <linearGradient gradientTransform="matrix(0.9734 0.2292 0.2292 -0.9734 -39.2364 275.0513)"
                  gradientUnits="userSpaceOnUse"
                  id="SVGID_00000137832396418680169460000008578266803371974563_" x1="48.817" x2="48.817" y1="209.911"
                  y2="221.2543">
	<stop offset="0" style="stop-color:#D52D88"/>
    <stop offset="1" style="stop-color:#E7297E"/>
</linearGradient>
  <path d="M48.3,75.4c-2.4,2.7,2.7,5.6,6.8,6.1
	c4.7,0.5,12.9-1.3,12.4-6C67.1,70.8,53.9,69.1,48.3,75.4z"
        style="fill:url(#SVGID_00000137832396418680169460000008578266803371974563_);"/>
  <linearGradient gradientTransform="matrix(1 0 0 -1 0 216.11)" gradientUnits="userSpaceOnUse"
                  id="SVGID_00000011733494694734816440000017035880862009661115_" x1="61.4421" x2="124.2759"
                  y1="183.5081" y2="183.5081">
	<stop offset="0" style="stop-color:#020203"/>
    <stop offset="1" style="stop-color:#7293CC"/>
</linearGradient>
  <path
    d="
	M61.5,34.9c-0.7,4.3,8.9,4.1,22,3.7c15.7-0.5,31.5,13,40.7,3.3c1.5-1.6-13.5-22.6-31.7-22.1C74.3,20.2,62.1,31.2,61.5,34.9z"
    style="opacity:0.5;fill:url(#SVGID_00000011733494694734816440000017035880862009661115_);enable-background:new    ;"/>
  <linearGradient gradientTransform="matrix(1 0 0 -1 0 216.11)" gradientUnits="userSpaceOnUse"
                  id="SVGID_00000100380612689779001810000014415745060546945676_" x1="70.3304" x2="114.9758"
                  y1="142.1601" y2="142.1601">
	<stop offset="0" style="stop-color:#020203"/>
    <stop offset="1" style="stop-color:#7293CC"/>
</linearGradient>
  <path
    d="
	M70.4,72.5c-0.8,3.1,5.7,6.3,21.8,5.5c19.5-1,23.6-5,22.6-6.2c-0.6-0.7-6.4,3-22.4-0.5C81.9,69,71.3,69.2,70.4,72.5z"
    style="opacity:0.5;fill:url(#SVGID_00000100380612689779001810000014415745060546945676_);enable-background:new    ;"/>
  <linearGradient gradientTransform="matrix(1 0 0 -1 0 216.11)" gradientUnits="userSpaceOnUse"
                  id="SVGID_00000027571483081709450280000000828404719091930243_" x1="135.145" x2="135.145" y1="163.2255"
                  y2="164.6434">
	<stop offset="0" style="stop-color:#926AAB"/>
    <stop offset="1" style="stop-color:#CDEAFC"/>
</linearGradient>
  <path
    d="
	M135.4,52.9l-0.5-1.4C135,51.7,135.2,52.2,135.4,52.9z"
    style="opacity:0.3;fill:url(#SVGID_00000027571483081709450280000000828404719091930243_);enable-background:new    ;"/>
  <linearGradient gradientTransform="matrix(1 0 0 -1 0 216.11)" gradientUnits="userSpaceOnUse"
                  id="SVGID_00000133527846420403414970000010971023556269801124_" x1="90.9864" x2="90.9864" y1="44.52"
                  y2="105.87">
	<stop offset="0" style="stop-color:#926AAB"/>
    <stop offset="1" style="stop-color:#CDEAFC"/>
</linearGradient>
  <path
    d="
	M117.5,152.8c-1.9,11.2-12,18.7-26.4,18.7c-12.6,0-23.2-4.7-26-15c-2.8-10.3-1.7-29.4,2-41.2c0.6-1.8,1.2-3.5,2-5.1l0,0
	c0,0-7.6,25.2-1.5,41.2c6.1,16,34.4,15.7,44,5c9.1-10.1,4.9-34,4.5-36.3C118.6,131,119.2,142.8,117.5,152.8z"
    style="opacity:0.3;fill:url(#SVGID_00000133527846420403414970000010971023556269801124_);enable-background:new    ;"/>
  <linearGradient gradientTransform="matrix(1 0 0 -1 0 216.11)" gradientUnits="userSpaceOnUse"
                  id="SVGID_00000150809685443312290710000009347507617357795765_" x1="90.4001" x2="90.4001" y1="45.78"
                  y2="94.0963">
	<stop offset="0" style="stop-color:#B59CCA"/>
    <stop offset="1" style="stop-color:#938AC2"/>
</linearGradient>
  <path d="M65.6,146.2c2.1-15.1,14.2-25.3,27.7-24
	c14.5,1.4,22.3,15.2,22.1,27.1c-0.2,11.9-8.9,21.1-24.4,21.1C75.4,170.3,63.6,160.3,65.6,146.2z"
        style="fill:url(#SVGID_00000150809685443312290710000009347507617357795765_);"/>
  <radialGradient cx="91.3641" cy="52.0219" gradientTransform="matrix(1 0 0 -1 0 216.11)" gradientUnits="userSpaceOnUse"
                  id="SVGID_00000068645320907937636960000014712264832008279700_" r="36.8712">
	<stop offset="0" style="stop-color:#7AC5B1"/>
    <stop offset="1" style="stop-color:#61C5E6"/>
</radialGradient>
  <path d="M65.8,147.4c2.1-15.1,14.2-25.3,27.7-24
	c14.5,1.4,22.3,15.2,22.1,27.1c-0.2,11.9-8.9,21.1-24.4,21.1C75.5,171.6,63.7,161.5,65.8,147.4z"
        style="fill:url(#SVGID_00000068645320907937636960000014712264832008279700_);"/>
  <linearGradient gradientTransform="matrix(1 0 0 -1 0 216.11)" gradientUnits="userSpaceOnUse"
                  id="SVGID_00000008836043426636663710000006162808775720919227_" x1="89.9276" x2="89.9276" y1="106.5264"
                  y2="121.49">
	<stop offset="0" style="stop-color:#8FA3D4"/>
    <stop offset="1" style="stop-color:#6E5CA4"/>
</linearGradient>
  <path
    d="
	M108.5,102.7c-3.1,4.8-20,7.6-29.8,6.7c-8.5-0.8-7.2-3.1-7.2-3.4c0,0,0,0,0,0c4.6-6.9,11.3-11.4,18.9-11.4
	C98.3,94.6,104.3,97.9,108.5,102.7z"
    style="opacity:0.5;fill:url(#SVGID_00000008836043426636663710000006162808775720919227_);enable-background:new    ;"/>
  <path class="st5" d="M102.4,111c-0.8,0.3-0.8,6.6,0,7.6c0.8,1,2.1,0.7,2.6-0.8C105.5,116.4,103.6,110.6,102.4,111z"/>
  <path class="st5" d="M103.9,120.4c-0.7,0.2-0.7,1.7-0.4,2.3s1.4,0.4,1.6-0.2C105.3,121.7,104.5,120.2,103.9,120.4z"/>
  <linearGradient gradientTransform="matrix(1 0 0 -1 0 216.11)" gradientUnits="userSpaceOnUse"
                  id="SVGID_00000154427336866661780850000009919831722346376616_" x1="91.575" x2="91.575" y1="47.2198"
                  y2="55.5892">
	<stop offset="0" style="stop-color:#D5E0F4"/>
    <stop offset="1" style="stop-color:#020203"/>
</linearGradient>
  <path
    d="
	M74.3,162.8c0,0,3.5,6,16.4,6.1c12.9,0,18.2-7.6,18.2-7.6s-6,3.9-14.5,1.5C85.8,160.5,77.4,159.1,74.3,162.8z"
    style="opacity:0.72;fill:url(#SVGID_00000154427336866661780850000009919831722346376616_);enable-background:new    ;"/>
  <path class="st5" d="M101.5,17.8c-1.4,0.3,10.2,6.5,10.7,5.7C112.6,22.8,105.3,16.9,101.5,17.8z"/>
  <path class="st5" d="M123.7,22.4c-1.2,0.6-1.1,1.9,1.3,1.6c2.4-0.3,3.7-2.2,3.4-2.5C128.2,21.1,125,21.7,123.7,22.4z"/>
  <linearGradient gradientTransform="matrix(1 0 0 -1 0 216.11)" gradientUnits="userSpaceOnUse"
                  id="SVGID_00000118384293755148063120000011127072227628443299_" x1="130.2088" x2="130.2088" y1="97.94"
                  y2="141.78">
	<stop offset="0" style="stop-color:#926AAB"/>
    <stop offset="1" style="stop-color:#CDEAFC"/>
</linearGradient>
  <path
    d="
	M152,85.5c-12.3,24.4-34,32.7-34,32.7c-6-3.9-11.1-16.5-9.1-18.9l0,0c0.1-0.1,0.2-0.2,0.4-0.3c0,0,3.9,14.2,15.2,10.3
	c13.5-4.7,19-28,19-28v-6.9l7,3.6C152.1,81.4,152,85.5,152,85.5z"
    style="opacity:0.3;fill:url(#SVGID_00000118384293755148063120000011127072227628443299_);enable-background:new    ;"/>
  <linearGradient gradientTransform="matrix(1 0 0 -1 0 216.11)" gradientUnits="userSpaceOnUse"
                  id="SVGID_00000155860526349312828060000018076702258905709729_" x1="150.4137" x2="154.8749"
                  y1="129.3882" y2="164.9081">
	<stop offset="0" style="stop-color:#CABFE0"/>
    <stop offset="1" style="stop-color:#E7DBED"/>
</linearGradient>
  <path d="M142.9,77.3c0,0-0.1,7.7,4.3,9
	S157,79.3,159,76c2-3.4,5.1-18.6,2.2-22.3c-2.9-3.6-8.5-2.7-12.3,2.4C148.9,56.1,143.1,70.8,142.9,77.3z"
        style="fill:url(#SVGID_00000155860526349312828060000018076702258905709729_);"/>
  <linearGradient gradientTransform="matrix(1 0 0 -1 0 216.11)" gradientUnits="userSpaceOnUse"
                  id="SVGID_00000036241853210490031260000017899444196443512974_" x1="149.845" x2="149.845" y1="141.09"
                  y2="164.6436">
	<stop offset="0" style="stop-color:#B59CCA"/>
    <stop offset="1" style="stop-color:#938AC2"/>
</linearGradient>
  <path d="M143.1,75c0,0,5.1-3.9,6.2-9.8
	c1.1-5.9,7.3-13.8,7.3-13.8s-3.2-0.3-7.7,4.6C144.4,61,143.1,75,143.1,75z"
        style="fill:url(#SVGID_00000036241853210490031260000017899444196443512974_);"/>
  <linearGradient gradientTransform="matrix(1 0 0 -1 0 216.11)" gradientUnits="userSpaceOnUse"
                  id="SVGID_00000146492827967342407720000005238336683188635833_" x1="149.105" x2="149.105" y1="145.39"
                  y2="159.03">
	<stop offset="0" style="stop-color:#8FA3D4"/>
    <stop offset="1" style="stop-color:#6E5CA4"/>
</linearGradient>
  <path
    d="
	M148.1,57.1l3.9,1.5c0,0-1.7,2.9-2.4,5.6s-3.3,6.5-3.3,6.5L148.1,57.1z"
    style="opacity:0.5;fill:url(#SVGID_00000146492827967342407720000005238336683188635833_);enable-background:new    ;"/>
  <linearGradient gradientTransform="matrix(1 0 0 -1 0 216.11)" gradientUnits="userSpaceOnUse"
                  id="SVGID_00000170250528252076182090000001196581938907792008_" x1="143.8265" x2="146.3121"
                  y1="142.4575" y2="162.2478">
	<stop offset="0" style="stop-color:#CABFE0"/>
    <stop offset="1" style="stop-color:#E7DBED"/>
</linearGradient>
  <path d="M143.1,73.6c0,0-1.3-2.9-1.5-8.5
	c-0.2-5.6,1.1-10,1.8-10.8c0.6-0.8,2.8-0.7,3.9,0.6s1.8,7.4,1.8,7.4S147.6,72.2,143.1,73.6z"
        style="fill:url(#SVGID_00000170250528252076182090000001196581938907792008_);"/>
  <linearGradient gradientTransform="matrix(1 0 0 -1 0 216.11)" gradientUnits="userSpaceOnUse"
                  id="SVGID_00000050648047183066425640000004238339278513668785_" x1="154.155" x2="154.155" y1="138.85"
                  y2="151.91">
	<stop offset="0" style="stop-color:#B59CCA"/>
    <stop offset="1" style="stop-color:#938AC2"/>
</linearGradient>
  <path d="M149.3,65.2c0,0,2.6,8.6,8.9,12L159,76
	c0,0-6.4-3.4-9.4-11.8L149.3,65.2z" style="fill:url(#SVGID_00000050648047183066425640000004238339278513668785_);"/>
  <path class="st5" d="M144.7,58.4c-0.6-0.1-0.4,5.5,0.4,5.2C145.9,63.4,145.6,58.5,144.7,58.4z"/>
  <linearGradient gradientTransform="matrix(1 0 0 -1 0 216.11)" gradientUnits="userSpaceOnUse"
                  id="SVGID_00000091709823742708487170000006318945797787543951_" x1="57.093" x2="57.093" y1="139.6913"
                  y2="144.5109">
	<stop offset="0" style="stop-color:#9E559D"/>
    <stop offset="1" style="stop-color:#EB72A9"/>
</linearGradient>
  <path d="M48.6,75.9c-0.1,0.8,16.5,1,16.9-2
	S49.8,70,48.6,75.9z" style="fill:url(#SVGID_00000091709823742708487170000006318945797787543951_);"/>
  <linearGradient gradientTransform="matrix(0.9977 6.840000e-02 6.840000e-02 -0.9977 -10.5331 234.7442)"
                  gradientUnits="userSpaceOnUse"
                  id="SVGID_00000124137533023352128550000010693269047393665709_" x1="54.2749" x2="54.2749" y1="171.9948"
                  y2="194.7677">
	<stop offset="0" style="stop-color:#020203"/>
    <stop offset="1" style="stop-color:#60C4E5"/>
</linearGradient>
  <path
    d="
	M52.7,64.2c0,0-0.7-4.5,0.1-10.6c0.8-6.1,2.4-10,3.4-9.5c1,0.5,0.8,6.5,1.4,12.4c0.5,4.6,1.3,8.9,1.3,8.9S54.8,69.4,52.7,64.2z"
    style="opacity:0.2;fill:url(#SVGID_00000124137533023352128550000010693269047393665709_);enable-background:new    ;"/>
  <linearGradient gradientTransform="matrix(1 0 0 -1 0 216.11)" gradientUnits="userSpaceOnUse"
                  id="SVGID_00000106124290987947706650000014175873585497520774_" x1="70.8389" x2="112.8608" y1="80.8738"
                  y2="80.8738">
	<stop offset="0" style="stop-color:#020203"/>
    <stop offset="1" style="stop-color:#D5E0F4"/>
</linearGradient>
  <path
    d="
	M70.9,137.8c2.6,4.1,13.1,1.9,24.9,3.1c11.9,1.2,13.9,5,16.4,4.2s-1.5-18.6-19.1-19.8C75.3,124.1,70.3,136.8,70.9,137.8z"
    style="opacity:0.72;fill:url(#SVGID_00000106124290987947706650000014175873585497520774_);enable-background:new    ;"/>
  <linearGradient gradientTransform="matrix(1 0 0 -1 0 216.11)" gradientUnits="userSpaceOnUse"
                  id="SVGID_00000113350630592956628730000017535672378147473084_" x1="128.9575" x2="137.8219"
                  y1="185.5585" y2="185.5585">
	<stop offset="0" style="stop-color:#020203"/>
    <stop offset="1" style="stop-color:#D5E0F4"/>
</linearGradient>
  <path
    d="
	M136.7,27.4c0,0-2.2-2.7-5.2-2c-3,0.7-3.2,10.2-1.4,10.4c1.8,0.2,2.6-5.2,3.9-6.1c1.4-0.9,3.8-0.5,3.8-0.5L136.7,27.4z"
    style="opacity:0.72;fill:url(#SVGID_00000113350630592956628730000017535672378147473084_);enable-background:new    ;"/>
  <linearGradient gradientTransform="matrix(1 0 0 -1 0 216.11)" gradientUnits="userSpaceOnUse"
                  id="SVGID_00000009586324270437960020000005512843286558699183_" x1="43.93" x2="53.7007" y1="186.9309"
                  y2="186.9309">
	<stop offset="0" style="stop-color:#D5E0F4"/>
    <stop offset="1" style="stop-color:#020203"/>
</linearGradient>
  <path
    d="
	M43.9,30.7c0,0,1.2-1.3,3.8-0.9c2.6,0.4,4.1,5.8,5.4,5.2c1.3-0.5,0.4-9.2-3.2-11.7C50,23.3,45.4,27.2,43.9,30.7z"
    style="opacity:0.72;fill:url(#SVGID_00000009586324270437960020000005512843286558699183_);enable-background:new    ;"/>
  <linearGradient gradientTransform="matrix(0.9999 1.650000e-02 1.650000e-02 -0.9999 -2.5157 221.3766)"
                  gradientUnits="userSpaceOnUse"
                  id="SVGID_00000145037875218192188990000009363230177642063531_" x1="35.7279" x2="35.7279" y1="167.5079"
                  y2="178.7638">
	<stop offset="0" style="stop-color:#CABFE0"/>
    <stop offset="1" style="stop-color:#E7DBED"/>
</linearGradient>
  <path d="M40.4,43.3c0,0-9.2,10.3-8.6,11.1
	C32.3,55.1,40.9,44.4,40.4,43.3z" style="fill:url(#SVGID_00000145037875218192188990000009363230177642063531_);"/>
</svg>
