<?xml version="1.0" encoding="utf-8"?>
<!-- Generator: Adobe Illustrator 27.0.0, SVG Export Plug-In . SVG Version: 6.00 Build 0)  -->
<svg id="Ebene_1" style="enable-background:new 0 0 140 140;" version="1.1" viewBox="0 0 140 140"
     x="0px"
     xml:space="preserve" xmlns="http://www.w3.org/2000/svg" y="0px">
<style type="text/css">
	.st0 {
    opacity: 0.6;
    fill: #3ED3C0;
  }
</style>
  <path class="st0" d="M49.81,63.3h48.57v37.27H49.81V63.3z" id="Differenzmenge_9"/>
  <g id="noun-daily-calendar-4064786" transform="translate(911.795 867)">
	<path d="M-823.91-770.94h-39.99c-3.56-0.01-6.44-2.89-6.44-6.44v-39.99c0-3.55,2.89-6.43,6.44-6.44h39.99
		c3.56,0,6.44,2.88,6.44,6.44v39.99C-817.47-773.83-820.35-770.95-823.91-770.94C-823.91-770.94-823.91-770.94-823.91-770.94z
		 M-863.9-821.19c-2.1,0-3.81,1.71-3.81,3.81v39.99c0,2.1,1.71,3.81,3.81,3.81h39.99c2.1,0,3.81-1.7,3.81-3.81v-39.99
		c0-2.1-1.71-3.81-3.81-3.81H-863.9z" id="Pfad_69"/>
    <path d="M-855.09-816.97c-0.73,0-1.31-0.59-1.31-1.31v-8.95c0-0.73,0.59-1.32,1.32-1.32c0.73,0,1.32,0.59,1.32,1.32
		v8.95C-853.78-817.56-854.37-816.98-855.09-816.97z" id="Pfad_70"/>
    <path d="M-832.93-816.97c-0.73,0-1.32-0.59-1.32-1.31v-8.95c0-0.73,0.59-1.32,1.32-1.32c0.73,0,1.32,0.59,1.32,1.32
		v8.95C-831.61-817.57-832.2-816.98-832.93-816.97C-832.92-816.97-832.92-816.97-832.93-816.97z" id="Pfad_71"/>
    <path d="M-818.79-808.95h-50.25c-0.73,0-1.31-0.59-1.31-1.31c0-0.73,0.59-1.31,1.31-1.31h50.25
		c0.73,0,1.31,0.59,1.31,1.31C-817.47-809.53-818.06-808.95-818.79-808.95z" id="Pfad_72"/>
</g>
</svg>
