<?xml version="1.0" encoding="utf-8"?>
<!-- Generator: Adobe Illustrator 27.0.0, SVG Export Plug-In . SVG Version: 6.00 Build 0)  -->
<svg id="Ebene_1" style="enable-background:new 0 0 140 140;" version="1.1" viewBox="0 0 140 140"
     x="0px"
     xml:space="preserve" xmlns="http://www.w3.org/2000/svg" y="0px">
<style type="text/css">
	.st0 {
    opacity: 0.6;
    fill: #FFED64;
  }
</style>
  <path class="st0" d="M50.18,71.47h88L90.82,89.56h-88L50.18,71.47z" id="Pfad_68"/>
  <g id="noun-dumbbell-weight-972543" transform="translate(39.823)">
	<path d="M14.43,79.29h-3.88c-2.84,0-5.15-2.31-5.15-5.15V59.96c0-2.14,1.74-3.88,3.88-3.88h5.15l1.29,1.29V78
		L14.43,79.29z M9.28,58.66c-0.72,0-1.3,0.58-1.3,1.3l0,0v14.18c0,1.42,1.15,2.57,2.57,2.57h2.59V58.66H9.28z"
        id="Pfad_64"/>
    <path d="M19.59,84.44H17c-2.13,0-3.86-1.73-3.86-3.86v-25.8c0-2.13,1.73-3.86,3.86-3.86h2.59
		c2.13,0,3.86,1.73,3.86,3.86v25.8C23.45,82.71,21.72,84.44,19.59,84.44z M17,53.5c-0.71,0-1.28,0.57-1.28,1.28v25.8
		c0,0.71,0.57,1.28,1.28,1.28h2.59c0.71,0,1.28-0.57,1.28-1.28v-25.8c0-0.71-0.57-1.28-1.28-1.28H17z" id="Pfad_65"/>
    <rect height="3.05" id="Rechteck_84" width="25.4" x="21.11" y="66.16"/>
    <rect height="3.05" id="Rechteck_85" width="4.47" x="2.82" y="66.16"/>
    <path d="M58.26,79.29h-5.15L51.82,78V57.37l1.29-1.29h3.88c2.84,0,5.15,2.31,5.15,5.15v14.18
		C62.13,77.55,60.4,79.28,58.26,79.29z M54.4,76.71h3.86c0.72,0,1.3-0.58,1.3-1.3V61.23c0-1.42-1.15-2.57-2.57-2.57H54.4V76.71z"
          id="Pfad_66"/>
    <path d="M50.54,84.44h-2.59c-2.13,0-3.86-1.73-3.86-3.86v-25.8c0-2.13,1.73-3.86,3.86-3.86h2.59
		c2.13,0,3.86,1.73,3.86,3.86v25.8C54.4,82.71,52.67,84.44,50.54,84.44z M47.94,53.5c-0.71,0-1.28,0.57-1.28,1.28v25.8
		c0,0.71,0.57,1.28,1.28,1.28h2.59c0.71,0,1.28-0.57,1.28-1.28v-25.8c0-0.71-0.57-1.28-1.28-1.28H47.94z" id="Pfad_67"/>
    <rect height="3.05" id="Rechteck_86" width="4.47" x="60.24" y="66.16"/>
</g>
</svg>
