<?xml version="1.0" encoding="utf-8"?>
<!-- Generator: Adobe Illustrator 27.0.0, SVG Export Plug-In . SVG Version: 6.00 Build 0)  -->
<svg id="Ebene_1" style="enable-background:new 0 0 140 140;" version="1.1" viewBox="0 0 140 140"
     x="0px"
     xml:space="preserve" xmlns="http://www.w3.org/2000/svg" y="0px">
<style type="text/css">
	.st0 {
    opacity: 0.6;
    fill: #3ED3C0;
  }
</style>
  <circle class="st0" cx="66.64" cy="67.63" id="Ellipse_56" r="28.5"/>
  <g id="noun-time-1797583" transform="translate(6.333 5.597)">
	<path d="M66.41,39.13c15.61,0,28.26,12.65,28.26,28.26S82.02,95.66,66.41,95.66S38.15,83,38.15,67.39c0,0,0,0,0,0
		C38.16,51.79,50.81,39.14,66.41,39.13z M66.41,41.96c-14.05,0-25.44,11.39-25.44,25.44s11.39,25.44,25.44,25.44
		s25.44-11.39,25.44-25.44l0,0c0.01-14.04-11.36-25.42-25.39-25.44C66.44,41.96,66.42,41.96,66.41,41.96z M66.41,46.9
		c0.78,0,1.41,0.63,1.41,1.41l0,0v19.08c0,0.37-0.15,0.73-0.42,0.99l-12.47,12.5c-0.57,0.54-1.47,0.52-2.01-0.05
		c-0.52-0.55-0.52-1.41,0-1.96L65,66.82v-18.5C64.99,47.54,65.62,46.91,66.41,46.9C66.41,46.9,66.41,46.9,66.41,46.9L66.41,46.9z"
        id="Pfad_63"/>
</g>
</svg>
